G04 EAGLE Gerber RS-274X export*
G75*
%MOMM*%
%FSLAX34Y34*%
%LPD*%
%INBottom Copper*%
%IPPOS*%
%AMOC8*
5,1,8,0,0,1.08239X$1,22.5*%
G01*
G04 Define Apertures*
%ADD10C,0.130000*%
%ADD11C,1.524000*%
%ADD12C,1.498600*%
%ADD13R,1.676400X1.676400*%
%ADD14C,1.676400*%
%ADD15C,0.203200*%
%ADD16C,0.604000*%
G36*
X241442Y3890D02*
X241046Y3810D01*
X4826Y3810D01*
X4460Y3878D01*
X4119Y4096D01*
X3890Y4430D01*
X3810Y4826D01*
X3810Y66040D01*
X3878Y66406D01*
X4096Y66747D01*
X4430Y66976D01*
X4826Y67056D01*
X241046Y67056D01*
X241412Y66988D01*
X241753Y66770D01*
X241982Y66436D01*
X242062Y66040D01*
X242062Y4826D01*
X241994Y4460D01*
X241776Y4119D01*
X241442Y3890D01*
G37*
%LPC*%
G36*
X173763Y14224D02*
X174997Y14224D01*
X178684Y15751D01*
X181507Y18574D01*
X182434Y20813D01*
X182626Y21113D01*
X182954Y21350D01*
X183348Y21440D01*
X183747Y21369D01*
X184085Y21148D01*
X184311Y20813D01*
X185188Y18696D01*
X187760Y16124D01*
X191121Y14732D01*
X209999Y14732D01*
X213360Y16124D01*
X215932Y18696D01*
X216750Y20671D01*
X216942Y20971D01*
X217270Y21207D01*
X217664Y21297D01*
X218062Y21226D01*
X218401Y21006D01*
X218627Y20671D01*
X219495Y18574D01*
X222318Y15751D01*
X226005Y14224D01*
X227239Y14224D01*
X227239Y34290D01*
X226005Y34290D01*
X222318Y32763D01*
X219495Y29940D01*
X218469Y27463D01*
X218277Y27162D01*
X217949Y26926D01*
X217555Y26836D01*
X217157Y26907D01*
X216818Y27127D01*
X216592Y27463D01*
X215932Y29056D01*
X213360Y31628D01*
X209999Y33020D01*
X191121Y33020D01*
X187760Y31628D01*
X185188Y29056D01*
X184469Y27320D01*
X184277Y27020D01*
X183949Y26783D01*
X183555Y26693D01*
X183157Y26764D01*
X182818Y26985D01*
X182592Y27320D01*
X181507Y29940D01*
X178684Y32763D01*
X176650Y33605D01*
X176355Y33792D01*
X176116Y34118D01*
X176023Y34512D01*
X176091Y34910D01*
X176309Y35251D01*
X176642Y35480D01*
X177038Y35560D01*
X216952Y35560D01*
X222775Y41383D01*
X223090Y41597D01*
X223485Y41680D01*
X223882Y41603D01*
X226207Y40640D01*
X229795Y40640D01*
X233109Y42013D01*
X235645Y44549D01*
X237018Y47863D01*
X237018Y51451D01*
X235645Y54765D01*
X233109Y57301D01*
X229795Y58674D01*
X226207Y58674D01*
X222893Y57301D01*
X220357Y54765D01*
X219569Y52863D01*
X219377Y52562D01*
X219049Y52326D01*
X218654Y52236D01*
X218256Y52307D01*
X217918Y52527D01*
X217692Y52863D01*
X216793Y55031D01*
X213935Y57889D01*
X210201Y59436D01*
X201322Y59436D01*
X201322Y48514D01*
X199798Y48514D01*
X199798Y59436D01*
X190919Y59436D01*
X187185Y57889D01*
X184327Y55031D01*
X183369Y52720D01*
X183177Y52420D01*
X182849Y52183D01*
X182455Y52093D01*
X182057Y52164D01*
X181718Y52385D01*
X181492Y52720D01*
X180645Y54765D01*
X178109Y57301D01*
X174795Y58674D01*
X171207Y58674D01*
X167893Y57301D01*
X165357Y54765D01*
X164824Y53479D01*
X164627Y53173D01*
X164297Y52939D01*
X163902Y52852D01*
X163504Y52927D01*
X163167Y53150D01*
X155040Y61278D01*
X30698Y61278D01*
X24448Y55027D01*
X24448Y44985D01*
X26908Y42524D01*
X27126Y42202D01*
X27206Y41806D01*
X27206Y39393D01*
X29868Y36731D01*
X30930Y36731D01*
X31288Y36666D01*
X31631Y36450D01*
X31862Y36119D01*
X31945Y35723D01*
X31868Y35326D01*
X31750Y35041D01*
X31750Y26162D01*
X41148Y26162D01*
X41148Y43180D01*
X39889Y43180D01*
X37699Y42273D01*
X37342Y42196D01*
X36944Y42264D01*
X36603Y42482D01*
X36374Y42815D01*
X36308Y43143D01*
X34926Y44525D01*
X34715Y44833D01*
X34628Y45228D01*
X34703Y45625D01*
X34926Y45962D01*
X36926Y47962D01*
X37248Y48180D01*
X37645Y48260D01*
X54430Y48260D01*
X54812Y48186D01*
X55149Y47962D01*
X56855Y46256D01*
X60620Y46256D01*
X63282Y48918D01*
X63282Y52682D01*
X61501Y54463D01*
X61297Y54756D01*
X61204Y55149D01*
X61271Y55548D01*
X61489Y55888D01*
X61823Y56117D01*
X62219Y56198D01*
X152515Y56198D01*
X152896Y56123D01*
X153233Y55900D01*
X159087Y50045D01*
X159305Y49723D01*
X159385Y49327D01*
X159385Y44985D01*
X168810Y35560D01*
X168964Y35560D01*
X169307Y35500D01*
X169653Y35290D01*
X169889Y34963D01*
X169979Y34568D01*
X169908Y34170D01*
X169688Y33831D01*
X169352Y33605D01*
X167318Y32763D01*
X164495Y29940D01*
X162968Y26253D01*
X162968Y25019D01*
X173763Y25019D01*
X173763Y14224D01*
G37*
G36*
X65491Y8636D02*
X69129Y8636D01*
X72490Y10028D01*
X75062Y12600D01*
X76454Y15961D01*
X76454Y29579D01*
X76528Y29960D01*
X76752Y30297D01*
X81832Y35377D01*
X82124Y35581D01*
X82518Y35674D01*
X82916Y35606D01*
X83257Y35388D01*
X83486Y35055D01*
X83566Y34659D01*
X83566Y15961D01*
X84958Y12600D01*
X87530Y10028D01*
X90891Y8636D01*
X94529Y8636D01*
X97890Y10028D01*
X100462Y12600D01*
X101854Y15961D01*
X101854Y29579D01*
X101928Y29960D01*
X102152Y30297D01*
X107232Y35377D01*
X107524Y35581D01*
X107918Y35674D01*
X108316Y35606D01*
X108657Y35388D01*
X108886Y35055D01*
X108966Y34659D01*
X108966Y15961D01*
X110358Y12600D01*
X112930Y10028D01*
X116291Y8636D01*
X119929Y8636D01*
X123290Y10028D01*
X125862Y12600D01*
X127254Y15961D01*
X127254Y33729D01*
X127317Y34081D01*
X127529Y34425D01*
X127859Y34659D01*
X128254Y34745D01*
X128651Y34671D01*
X128988Y34448D01*
X129880Y33556D01*
X133645Y33556D01*
X136307Y36218D01*
X136307Y39982D01*
X133645Y42644D01*
X129880Y42644D01*
X129476Y42240D01*
X129169Y42029D01*
X128774Y41943D01*
X128377Y42017D01*
X128040Y42240D01*
X126929Y43351D01*
X126725Y43643D01*
X126632Y44037D01*
X126700Y44435D01*
X126918Y44776D01*
X127251Y45005D01*
X127647Y45085D01*
X136980Y45085D01*
X137362Y45011D01*
X137699Y44787D01*
X139405Y43081D01*
X143170Y43081D01*
X144538Y44449D01*
X144845Y44660D01*
X145240Y44747D01*
X145638Y44672D01*
X145975Y44449D01*
X147975Y42449D01*
X148192Y42127D01*
X148273Y41730D01*
X148273Y29603D01*
X148198Y29222D01*
X147975Y28885D01*
X147835Y28746D01*
X147513Y28528D01*
X147117Y28448D01*
X132211Y28448D01*
X131318Y27555D01*
X131318Y9529D01*
X132211Y8636D01*
X150237Y8636D01*
X151130Y9529D01*
X151130Y24435D01*
X151204Y24816D01*
X151428Y25153D01*
X153353Y27078D01*
X153353Y41730D01*
X153427Y42112D01*
X153650Y42449D01*
X155357Y44155D01*
X155357Y47920D01*
X152695Y50582D01*
X148930Y50582D01*
X147562Y49213D01*
X147255Y49003D01*
X146860Y48916D01*
X146462Y48990D01*
X146125Y49213D01*
X143170Y52169D01*
X139405Y52169D01*
X137699Y50463D01*
X137377Y50245D01*
X136980Y50165D01*
X126885Y50165D01*
X126504Y50239D01*
X126167Y50463D01*
X124877Y51753D01*
X91023Y51753D01*
X76842Y37572D01*
X76543Y37365D01*
X76148Y37275D01*
X75750Y37346D01*
X75411Y37566D01*
X75185Y37902D01*
X75062Y38200D01*
X72490Y40772D01*
X69129Y42164D01*
X65491Y42164D01*
X62130Y40772D01*
X59558Y38200D01*
X58166Y34839D01*
X58166Y15961D01*
X59558Y12600D01*
X62130Y10028D01*
X65491Y8636D01*
G37*
G36*
X42672Y26162D02*
X52070Y26162D01*
X52070Y35041D01*
X50523Y38775D01*
X47665Y41633D01*
X43931Y43180D01*
X42672Y43180D01*
X42672Y26162D01*
G37*
G36*
X228763Y25019D02*
X238034Y25019D01*
X238034Y26253D01*
X236507Y29940D01*
X233684Y32763D01*
X229997Y34290D01*
X228763Y34290D01*
X228763Y25019D01*
G37*
G36*
X7620Y19304D02*
X17780Y19304D01*
X17780Y29464D01*
X16369Y29464D01*
X12355Y27801D01*
X9283Y24729D01*
X7620Y20715D01*
X7620Y19304D01*
G37*
G36*
X19304Y19304D02*
X29464Y19304D01*
X29464Y20715D01*
X27801Y24729D01*
X24729Y27801D01*
X20715Y29464D01*
X19304Y29464D01*
X19304Y19304D01*
G37*
G36*
X42672Y7620D02*
X43931Y7620D01*
X47665Y9167D01*
X50523Y12025D01*
X52070Y15759D01*
X52070Y24638D01*
X42672Y24638D01*
X42672Y7620D01*
G37*
G36*
X39889Y7620D02*
X41148Y7620D01*
X41148Y24638D01*
X31750Y24638D01*
X31750Y15759D01*
X33297Y12025D01*
X36155Y9167D01*
X39889Y7620D01*
G37*
G36*
X228763Y14224D02*
X229997Y14224D01*
X233684Y15751D01*
X236507Y18574D01*
X238034Y22261D01*
X238034Y23495D01*
X228763Y23495D01*
X228763Y14224D01*
G37*
G36*
X171005Y14224D02*
X172239Y14224D01*
X172239Y23495D01*
X162968Y23495D01*
X162968Y22261D01*
X164495Y18574D01*
X167318Y15751D01*
X171005Y14224D01*
G37*
G36*
X19304Y7620D02*
X20715Y7620D01*
X24729Y9283D01*
X27801Y12355D01*
X29464Y16369D01*
X29464Y17780D01*
X19304Y17780D01*
X19304Y7620D01*
G37*
G36*
X16369Y7620D02*
X17780Y7620D01*
X17780Y17780D01*
X7620Y17780D01*
X7620Y16369D01*
X9283Y12355D01*
X12355Y9283D01*
X16369Y7620D01*
G37*
%LPD*%
G36*
X99444Y-68160D02*
X99074Y-68151D01*
X98715Y-68123D01*
X98366Y-68076D01*
X98028Y-68011D01*
X97701Y-67927D01*
X97384Y-67824D01*
X97079Y-67702D01*
X96784Y-67562D01*
X96500Y-67403D01*
X96226Y-67226D01*
X95964Y-67030D01*
X95712Y-66815D01*
X95471Y-66581D01*
X95241Y-66329D01*
X95022Y-66058D01*
X94813Y-65768D01*
X94616Y-65461D01*
X94432Y-65138D01*
X94261Y-64799D01*
X94102Y-64443D01*
X93956Y-64072D01*
X93823Y-63684D01*
X93702Y-63280D01*
X93594Y-62861D01*
X93499Y-62425D01*
X93416Y-61973D01*
X93346Y-61505D01*
X93289Y-61020D01*
X93245Y-60520D01*
X93213Y-60004D01*
X93194Y-59471D01*
X93188Y-58923D01*
X93211Y-57886D01*
X93240Y-57392D01*
X93280Y-56916D01*
X93333Y-56456D01*
X93396Y-56013D01*
X93472Y-55587D01*
X93559Y-55178D01*
X93657Y-54785D01*
X93768Y-54409D01*
X93889Y-54050D01*
X94023Y-53708D01*
X94168Y-53382D01*
X94324Y-53074D01*
X94492Y-52782D01*
X94672Y-52506D01*
X94863Y-52248D01*
X95065Y-52006D01*
X95278Y-51781D01*
X95502Y-51572D01*
X95736Y-51381D01*
X95982Y-51206D01*
X96239Y-51047D01*
X96506Y-50905D01*
X96785Y-50780D01*
X97074Y-50672D01*
X97374Y-50580D01*
X97685Y-50505D01*
X98008Y-50447D01*
X98341Y-50405D01*
X98685Y-50380D01*
X99040Y-50372D01*
X99374Y-50378D01*
X99699Y-50396D01*
X100014Y-50426D01*
X100321Y-50469D01*
X100906Y-50590D01*
X101453Y-50760D01*
X101964Y-50978D01*
X102437Y-51245D01*
X102873Y-51560D01*
X103272Y-51924D01*
X103629Y-52330D01*
X103938Y-52772D01*
X104199Y-53251D01*
X104413Y-53765D01*
X104579Y-54316D01*
X104698Y-54904D01*
X104770Y-55527D01*
X104787Y-55852D01*
X104793Y-56187D01*
X104771Y-56830D01*
X104706Y-57440D01*
X104597Y-58018D01*
X104444Y-58564D01*
X104247Y-59076D01*
X104007Y-59557D01*
X103723Y-60004D01*
X103395Y-60419D01*
X103031Y-60793D01*
X102637Y-61117D01*
X102215Y-61391D01*
X101763Y-61615D01*
X101282Y-61790D01*
X100772Y-61914D01*
X100507Y-61958D01*
X100233Y-61989D01*
X99953Y-62008D01*
X99665Y-62014D01*
X99313Y-62004D01*
X98968Y-61972D01*
X98631Y-61920D01*
X98300Y-61847D01*
X97977Y-61753D01*
X97662Y-61638D01*
X97353Y-61502D01*
X97052Y-61345D01*
X96766Y-61172D01*
X96501Y-60984D01*
X96258Y-60783D01*
X96037Y-60568D01*
X95838Y-60340D01*
X95660Y-60098D01*
X95505Y-59842D01*
X95371Y-59573D01*
X95399Y-60368D01*
X95458Y-61116D01*
X95548Y-61817D01*
X95669Y-62471D01*
X95821Y-63078D01*
X96004Y-63637D01*
X96218Y-64150D01*
X96463Y-64615D01*
X96737Y-65029D01*
X97038Y-65388D01*
X97366Y-65691D01*
X97721Y-65940D01*
X98102Y-66133D01*
X98303Y-66209D01*
X98511Y-66271D01*
X98725Y-66319D01*
X98946Y-66354D01*
X99173Y-66375D01*
X99408Y-66382D01*
X99684Y-66373D01*
X99947Y-66348D01*
X100198Y-66306D01*
X100437Y-66247D01*
X100663Y-66171D01*
X100876Y-66078D01*
X101078Y-65968D01*
X101266Y-65842D01*
X101442Y-65698D01*
X101606Y-65538D01*
X101758Y-65361D01*
X101896Y-65167D01*
X102023Y-64956D01*
X102137Y-64728D01*
X102238Y-64484D01*
X102327Y-64222D01*
X104438Y-64554D01*
X104295Y-65013D01*
X104130Y-65439D01*
X103944Y-65832D01*
X103737Y-66193D01*
X103507Y-66521D01*
X103256Y-66816D01*
X102984Y-67078D01*
X102689Y-67308D01*
X102372Y-67508D01*
X102029Y-67681D01*
X101661Y-67827D01*
X101268Y-67947D01*
X100850Y-68040D01*
X100406Y-68107D01*
X99938Y-68147D01*
X99444Y-68160D01*
G37*
%LPC*%
G36*
X99138Y-60272D02*
X99520Y-60255D01*
X99882Y-60203D01*
X100224Y-60118D01*
X100545Y-59998D01*
X100847Y-59843D01*
X101127Y-59654D01*
X101388Y-59431D01*
X101628Y-59174D01*
X101844Y-58887D01*
X102031Y-58576D01*
X102189Y-58239D01*
X102318Y-57878D01*
X102419Y-57492D01*
X102491Y-57082D01*
X102534Y-56647D01*
X102548Y-56187D01*
X102534Y-55736D01*
X102491Y-55308D01*
X102419Y-54905D01*
X102318Y-54526D01*
X102189Y-54171D01*
X102031Y-53839D01*
X101844Y-53532D01*
X101628Y-53249D01*
X101388Y-52994D01*
X101126Y-52774D01*
X100843Y-52587D01*
X100539Y-52434D01*
X100214Y-52316D01*
X99868Y-52231D01*
X99501Y-52180D01*
X99113Y-52163D01*
X98722Y-52183D01*
X98350Y-52242D01*
X97999Y-52341D01*
X97669Y-52480D01*
X97358Y-52659D01*
X97068Y-52877D01*
X96799Y-53135D01*
X96549Y-53433D01*
X96325Y-53763D01*
X96131Y-54118D01*
X95966Y-54500D01*
X95831Y-54906D01*
X95727Y-55338D01*
X95652Y-55796D01*
X95607Y-56279D01*
X95592Y-56788D01*
X95600Y-57039D01*
X95622Y-57283D01*
X95659Y-57521D01*
X95710Y-57751D01*
X95777Y-57974D01*
X95858Y-58191D01*
X95954Y-58401D01*
X96065Y-58604D01*
X96323Y-58980D01*
X96624Y-59311D01*
X96970Y-59596D01*
X97359Y-59837D01*
X97778Y-60027D01*
X98215Y-60163D01*
X98439Y-60211D01*
X98668Y-60245D01*
X98901Y-60265D01*
X99138Y-60272D01*
G37*
%LPD*%
G36*
X132155Y-67915D02*
X130069Y-67915D01*
X130069Y-64002D01*
X127640Y-64002D01*
X127640Y-62259D01*
X130069Y-62259D01*
X130069Y-50629D01*
X132388Y-50629D01*
X140301Y-62284D01*
X140301Y-64002D01*
X132155Y-64002D01*
X132155Y-67915D01*
G37*
%LPC*%
G36*
X138264Y-62259D02*
X138068Y-62014D01*
X137405Y-61106D01*
X132977Y-54580D01*
X132777Y-54261D01*
X132498Y-53770D01*
X132155Y-53120D01*
X132155Y-62259D01*
X138264Y-62259D01*
G37*
%LPD*%
G36*
X113156Y-68160D02*
X112800Y-68154D01*
X112454Y-68136D01*
X112119Y-68105D01*
X111793Y-68062D01*
X111476Y-68007D01*
X111170Y-67940D01*
X110587Y-67768D01*
X110043Y-67547D01*
X109538Y-67277D01*
X109073Y-66958D01*
X108647Y-66590D01*
X108266Y-66179D01*
X107936Y-65732D01*
X107656Y-65248D01*
X107428Y-64728D01*
X107333Y-64455D01*
X107250Y-64172D01*
X107180Y-63880D01*
X107123Y-63579D01*
X107079Y-63269D01*
X107047Y-62950D01*
X107028Y-62621D01*
X107022Y-62284D01*
X107045Y-61697D01*
X107116Y-61138D01*
X107235Y-60608D01*
X107400Y-60106D01*
X107613Y-59633D01*
X107874Y-59188D01*
X108182Y-58771D01*
X108537Y-58383D01*
X108932Y-58032D01*
X109359Y-57728D01*
X109819Y-57471D01*
X110311Y-57260D01*
X110835Y-57097D01*
X111392Y-56980D01*
X111982Y-56909D01*
X112603Y-56886D01*
X113126Y-56903D01*
X113627Y-56955D01*
X114106Y-57041D01*
X114563Y-57162D01*
X114999Y-57317D01*
X115412Y-57507D01*
X115804Y-57731D01*
X116173Y-57990D01*
X115842Y-52506D01*
X108027Y-52506D01*
X108027Y-50629D01*
X117854Y-50629D01*
X118431Y-59929D01*
X116272Y-59929D01*
X115885Y-59616D01*
X115499Y-59352D01*
X115112Y-59137D01*
X114726Y-58972D01*
X114332Y-58848D01*
X113922Y-58760D01*
X113498Y-58707D01*
X113057Y-58689D01*
X112639Y-58705D01*
X112243Y-58752D01*
X111868Y-58831D01*
X111516Y-58941D01*
X111186Y-59082D01*
X110878Y-59255D01*
X110592Y-59460D01*
X110328Y-59695D01*
X110091Y-59957D01*
X109885Y-60238D01*
X109711Y-60538D01*
X109569Y-60858D01*
X109458Y-61197D01*
X109379Y-61556D01*
X109331Y-61935D01*
X109316Y-62333D01*
X109331Y-62790D01*
X109379Y-63221D01*
X109457Y-63628D01*
X109567Y-64009D01*
X109709Y-64365D01*
X109882Y-64697D01*
X110086Y-65003D01*
X110322Y-65284D01*
X110585Y-65535D01*
X110873Y-65753D01*
X111185Y-65938D01*
X111521Y-66089D01*
X111881Y-66206D01*
X112265Y-66290D01*
X112674Y-66340D01*
X113106Y-66357D01*
X113460Y-66347D01*
X113796Y-66317D01*
X114115Y-66267D01*
X114417Y-66197D01*
X114702Y-66107D01*
X114969Y-65996D01*
X115219Y-65866D01*
X115453Y-65716D01*
X115669Y-65546D01*
X115868Y-65355D01*
X116050Y-65145D01*
X116214Y-64915D01*
X116362Y-64664D01*
X116492Y-64394D01*
X116605Y-64103D01*
X116701Y-63793D01*
X118934Y-64051D01*
X118819Y-64536D01*
X118669Y-64991D01*
X118486Y-65418D01*
X118268Y-65814D01*
X118017Y-66181D01*
X117731Y-66519D01*
X117411Y-66827D01*
X117057Y-67105D01*
X116671Y-67353D01*
X116256Y-67567D01*
X115812Y-67748D01*
X115339Y-67897D01*
X114837Y-68012D01*
X114306Y-68094D01*
X113745Y-68144D01*
X113156Y-68160D01*
G37*
G36*
X153582Y-67915D02*
X142136Y-67915D01*
X142136Y-66038D01*
X151153Y-66038D01*
X150940Y-65604D01*
X150669Y-65162D01*
X150339Y-64712D01*
X149951Y-64253D01*
X149498Y-63776D01*
X148973Y-63270D01*
X148375Y-62736D01*
X147706Y-62174D01*
X146528Y-61199D01*
X145556Y-60361D01*
X144792Y-59659D01*
X144234Y-59094D01*
X143808Y-58597D01*
X143438Y-58101D01*
X143124Y-57604D01*
X142866Y-57107D01*
X142665Y-56609D01*
X142521Y-56110D01*
X142471Y-55860D01*
X142435Y-55609D01*
X142413Y-55358D01*
X142406Y-55107D01*
X142428Y-54556D01*
X142494Y-54037D01*
X142604Y-53551D01*
X142757Y-53097D01*
X142955Y-52675D01*
X143196Y-52286D01*
X143482Y-51929D01*
X143811Y-51605D01*
X144181Y-51316D01*
X144589Y-51065D01*
X145034Y-50853D01*
X145518Y-50680D01*
X146039Y-50545D01*
X146598Y-50449D01*
X147194Y-50391D01*
X147829Y-50372D01*
X148410Y-50391D01*
X148965Y-50448D01*
X149492Y-50544D01*
X149992Y-50678D01*
X150466Y-50851D01*
X150912Y-51062D01*
X151332Y-51311D01*
X151724Y-51599D01*
X152083Y-51918D01*
X152402Y-52265D01*
X152682Y-52638D01*
X152921Y-53037D01*
X153122Y-53463D01*
X153282Y-53915D01*
X153403Y-54394D01*
X153484Y-54899D01*
X151227Y-55107D01*
X151175Y-54770D01*
X151100Y-54453D01*
X151001Y-54155D01*
X150879Y-53876D01*
X150733Y-53616D01*
X150563Y-53376D01*
X150370Y-53155D01*
X150153Y-52954D01*
X149917Y-52774D01*
X149665Y-52619D01*
X149398Y-52487D01*
X149115Y-52379D01*
X148817Y-52295D01*
X148503Y-52235D01*
X148174Y-52199D01*
X147829Y-52187D01*
X147468Y-52200D01*
X147127Y-52236D01*
X146807Y-52298D01*
X146507Y-52384D01*
X146227Y-52494D01*
X145968Y-52629D01*
X145729Y-52789D01*
X145510Y-52973D01*
X145315Y-53179D01*
X145145Y-53405D01*
X145002Y-53651D01*
X144884Y-53917D01*
X144793Y-54203D01*
X144728Y-54509D01*
X144689Y-54835D01*
X144676Y-55181D01*
X144683Y-55441D01*
X144706Y-55695D01*
X144744Y-55941D01*
X144797Y-56181D01*
X144865Y-56413D01*
X144948Y-56639D01*
X145047Y-56858D01*
X145160Y-57070D01*
X145421Y-57483D01*
X145720Y-57886D01*
X146056Y-58280D01*
X146430Y-58665D01*
X147263Y-59426D01*
X148191Y-60186D01*
X149171Y-60979D01*
X150160Y-61836D01*
X150651Y-62294D01*
X151130Y-62778D01*
X151598Y-63288D01*
X152055Y-63824D01*
X152489Y-64394D01*
X152888Y-65006D01*
X153252Y-65660D01*
X153582Y-66357D01*
X153582Y-67915D01*
G37*
G36*
X124614Y-67915D02*
X122222Y-67915D01*
X122222Y-65228D01*
X124614Y-65228D01*
X124614Y-67915D01*
G37*
G36*
X-79646Y33291D02*
X-80182Y33297D01*
X-80702Y33314D01*
X-81206Y33343D01*
X-81693Y33384D01*
X-82164Y33437D01*
X-82619Y33501D01*
X-83058Y33577D01*
X-83480Y33665D01*
X-83886Y33764D01*
X-84275Y33876D01*
X-84649Y33998D01*
X-85006Y34133D01*
X-85346Y34279D01*
X-85671Y34437D01*
X-85979Y34606D01*
X-86271Y34788D01*
X-86546Y34980D01*
X-86803Y35185D01*
X-87042Y35401D01*
X-87264Y35629D01*
X-87468Y35868D01*
X-87654Y36119D01*
X-87822Y36381D01*
X-87973Y36655D01*
X-88106Y36941D01*
X-88221Y37238D01*
X-88319Y37547D01*
X-88399Y37868D01*
X-88461Y38200D01*
X-88505Y38543D01*
X-88531Y38899D01*
X-88540Y39265D01*
X-88531Y39632D01*
X-88505Y39988D01*
X-88460Y40332D01*
X-88398Y40665D01*
X-88318Y40987D01*
X-88220Y41297D01*
X-88104Y41596D01*
X-87970Y41883D01*
X-87818Y42159D01*
X-87649Y42424D01*
X-87462Y42677D01*
X-87257Y42919D01*
X-87034Y43150D01*
X-86793Y43369D01*
X-86535Y43577D01*
X-86259Y43774D01*
X-85965Y43959D01*
X-85656Y44132D01*
X-85331Y44293D01*
X-84990Y44442D01*
X-84632Y44579D01*
X-84259Y44705D01*
X-83870Y44818D01*
X-83464Y44919D01*
X-83043Y45009D01*
X-82606Y45087D01*
X-82153Y45152D01*
X-81683Y45206D01*
X-81198Y45248D01*
X-80697Y45277D01*
X-80179Y45295D01*
X-79646Y45301D01*
X-78579Y45279D01*
X-77579Y45210D01*
X-77104Y45159D01*
X-76647Y45097D01*
X-76206Y45023D01*
X-75782Y44938D01*
X-75374Y44841D01*
X-74984Y44733D01*
X-74611Y44614D01*
X-74254Y44484D01*
X-73915Y44342D01*
X-73592Y44188D01*
X-73286Y44024D01*
X-72997Y43848D01*
X-72725Y43660D01*
X-72471Y43459D01*
X-72234Y43246D01*
X-72015Y43021D01*
X-71813Y42783D01*
X-71629Y42532D01*
X-71462Y42269D01*
X-71313Y41994D01*
X-71181Y41705D01*
X-71067Y41405D01*
X-70971Y41092D01*
X-70892Y40766D01*
X-70831Y40428D01*
X-70787Y40078D01*
X-70760Y39715D01*
X-70752Y39339D01*
X-70760Y38953D01*
X-70786Y38580D01*
X-70830Y38221D01*
X-70890Y37874D01*
X-70969Y37541D01*
X-71064Y37221D01*
X-71177Y36914D01*
X-71307Y36620D01*
X-71454Y36340D01*
X-71619Y36072D01*
X-71801Y35818D01*
X-72001Y35577D01*
X-72218Y35349D01*
X-72452Y35134D01*
X-72703Y34933D01*
X-72972Y34745D01*
X-73259Y34569D01*
X-73562Y34404D01*
X-73883Y34251D01*
X-74222Y34109D01*
X-74578Y33978D01*
X-74952Y33859D01*
X-75343Y33751D01*
X-75751Y33654D01*
X-76177Y33569D01*
X-76620Y33495D01*
X-77081Y33433D01*
X-77559Y33382D01*
X-78055Y33342D01*
X-78568Y33314D01*
X-79646Y33291D01*
G37*
%LPC*%
G36*
X-79646Y35524D02*
X-78732Y35538D01*
X-77884Y35579D01*
X-77103Y35649D01*
X-76389Y35746D01*
X-75741Y35871D01*
X-75161Y36024D01*
X-74646Y36205D01*
X-74199Y36413D01*
X-73811Y36653D01*
X-73474Y36929D01*
X-73190Y37241D01*
X-72957Y37589D01*
X-72776Y37973D01*
X-72705Y38178D01*
X-72646Y38392D01*
X-72601Y38616D01*
X-72569Y38848D01*
X-72549Y39089D01*
X-72543Y39339D01*
X-72549Y39583D01*
X-72569Y39818D01*
X-72602Y40045D01*
X-72648Y40263D01*
X-72707Y40472D01*
X-72779Y40672D01*
X-72963Y41046D01*
X-73199Y41385D01*
X-73488Y41689D01*
X-73830Y41958D01*
X-74224Y42191D01*
X-74676Y42394D01*
X-75193Y42570D01*
X-75774Y42718D01*
X-76420Y42840D01*
X-77130Y42935D01*
X-77904Y43002D01*
X-78743Y43043D01*
X-79646Y43056D01*
X-80519Y43042D01*
X-81333Y42999D01*
X-82089Y42929D01*
X-82787Y42829D01*
X-83426Y42702D01*
X-84007Y42546D01*
X-84530Y42361D01*
X-84995Y42148D01*
X-85403Y41905D01*
X-85757Y41629D01*
X-86056Y41321D01*
X-86301Y40980D01*
X-86404Y40797D01*
X-86492Y40606D01*
X-86567Y40407D01*
X-86628Y40200D01*
X-86676Y39985D01*
X-86710Y39761D01*
X-86730Y39530D01*
X-86737Y39290D01*
X-86730Y39049D01*
X-86710Y38816D01*
X-86677Y38591D01*
X-86630Y38375D01*
X-86570Y38167D01*
X-86497Y37967D01*
X-86311Y37592D01*
X-86071Y37251D01*
X-85778Y36943D01*
X-85431Y36667D01*
X-85032Y36425D01*
X-84575Y36214D01*
X-84056Y36031D01*
X-83475Y35876D01*
X-82833Y35749D01*
X-82129Y35650D01*
X-81363Y35580D01*
X-80535Y35538D01*
X-79646Y35524D01*
G37*
%LPD*%
G36*
X-76567Y47456D02*
X-77210Y47478D01*
X-77820Y47543D01*
X-78398Y47653D01*
X-78944Y47806D01*
X-79456Y48002D01*
X-79937Y48243D01*
X-80384Y48527D01*
X-80799Y48854D01*
X-81173Y49219D01*
X-81497Y49612D01*
X-81771Y50034D01*
X-81995Y50486D01*
X-82170Y50967D01*
X-82294Y51477D01*
X-82338Y51743D01*
X-82369Y52016D01*
X-82388Y52296D01*
X-82394Y52584D01*
X-82384Y52936D01*
X-82352Y53281D01*
X-82300Y53618D01*
X-82227Y53949D01*
X-82133Y54272D01*
X-82018Y54587D01*
X-81882Y54896D01*
X-81725Y55197D01*
X-81552Y55484D01*
X-81364Y55748D01*
X-81163Y55991D01*
X-80948Y56212D01*
X-80720Y56411D01*
X-80478Y56589D01*
X-80222Y56744D01*
X-79953Y56878D01*
X-80748Y56850D01*
X-81496Y56791D01*
X-82197Y56701D01*
X-82851Y56580D01*
X-83458Y56428D01*
X-84017Y56245D01*
X-84530Y56031D01*
X-84995Y55786D01*
X-85409Y55512D01*
X-85768Y55211D01*
X-86071Y54883D01*
X-86320Y54528D01*
X-86513Y54147D01*
X-86589Y53946D01*
X-86651Y53739D01*
X-86699Y53524D01*
X-86734Y53304D01*
X-86755Y53076D01*
X-86762Y52842D01*
X-86753Y52566D01*
X-86728Y52302D01*
X-86686Y52051D01*
X-86627Y51813D01*
X-86551Y51586D01*
X-86458Y51373D01*
X-86348Y51172D01*
X-86222Y50983D01*
X-86078Y50807D01*
X-85918Y50643D01*
X-85741Y50492D01*
X-85547Y50353D01*
X-85336Y50226D01*
X-85108Y50112D01*
X-84864Y50011D01*
X-84602Y49922D01*
X-84934Y47812D01*
X-85393Y47954D01*
X-85819Y48119D01*
X-86212Y48305D01*
X-86573Y48512D01*
X-86901Y48742D01*
X-87196Y48993D01*
X-87458Y49266D01*
X-87688Y49560D01*
X-87888Y49878D01*
X-88061Y50220D01*
X-88207Y50588D01*
X-88327Y50981D01*
X-88420Y51400D01*
X-88487Y51843D01*
X-88527Y52311D01*
X-88540Y52805D01*
X-88531Y53175D01*
X-88503Y53535D01*
X-88456Y53883D01*
X-88391Y54221D01*
X-88307Y54549D01*
X-88204Y54865D01*
X-88082Y55171D01*
X-87942Y55465D01*
X-87783Y55749D01*
X-87606Y56023D01*
X-87410Y56285D01*
X-87195Y56537D01*
X-86961Y56778D01*
X-86709Y57008D01*
X-86438Y57227D01*
X-86148Y57436D01*
X-85841Y57633D01*
X-85518Y57817D01*
X-85179Y57988D01*
X-84823Y58147D01*
X-84452Y58293D01*
X-84064Y58427D01*
X-83660Y58547D01*
X-83241Y58655D01*
X-82805Y58750D01*
X-82353Y58833D01*
X-81885Y58903D01*
X-81400Y58960D01*
X-80900Y59004D01*
X-80384Y59036D01*
X-79851Y59055D01*
X-79303Y59061D01*
X-78266Y59038D01*
X-77772Y59009D01*
X-77296Y58969D01*
X-76836Y58917D01*
X-76393Y58853D01*
X-75967Y58777D01*
X-75558Y58690D01*
X-75165Y58592D01*
X-74789Y58482D01*
X-74430Y58360D01*
X-74088Y58226D01*
X-73762Y58082D01*
X-73454Y57925D01*
X-73162Y57757D01*
X-72886Y57577D01*
X-72628Y57386D01*
X-72386Y57184D01*
X-72161Y56971D01*
X-71952Y56747D01*
X-71761Y56513D01*
X-71586Y56267D01*
X-71427Y56010D01*
X-71285Y55743D01*
X-71160Y55465D01*
X-71052Y55175D01*
X-70960Y54875D01*
X-70885Y54564D01*
X-70827Y54242D01*
X-70785Y53909D01*
X-70760Y53565D01*
X-70752Y53210D01*
X-70758Y52875D01*
X-70776Y52550D01*
X-70806Y52235D01*
X-70849Y51928D01*
X-70970Y51344D01*
X-71140Y50796D01*
X-71358Y50285D01*
X-71625Y49812D01*
X-71940Y49376D01*
X-72304Y48977D01*
X-72710Y48621D01*
X-73152Y48312D01*
X-73631Y48050D01*
X-74145Y47836D01*
X-74696Y47670D01*
X-75284Y47551D01*
X-75907Y47480D01*
X-76232Y47462D01*
X-76567Y47456D01*
G37*
%LPC*%
G36*
X-76567Y49701D02*
X-76116Y49715D01*
X-75688Y49758D01*
X-75285Y49830D01*
X-74906Y49931D01*
X-74551Y50060D01*
X-74219Y50219D01*
X-73912Y50405D01*
X-73629Y50621D01*
X-73374Y50862D01*
X-73154Y51123D01*
X-72967Y51406D01*
X-72814Y51710D01*
X-72696Y52035D01*
X-72611Y52381D01*
X-72560Y52748D01*
X-72543Y53136D01*
X-72563Y53528D01*
X-72622Y53899D01*
X-72721Y54250D01*
X-72860Y54581D01*
X-73039Y54891D01*
X-73257Y55181D01*
X-73515Y55451D01*
X-73813Y55700D01*
X-74143Y55924D01*
X-74498Y56119D01*
X-74880Y56283D01*
X-75286Y56418D01*
X-75718Y56522D01*
X-76176Y56597D01*
X-76659Y56642D01*
X-77168Y56657D01*
X-77419Y56650D01*
X-77663Y56627D01*
X-77901Y56591D01*
X-78131Y56539D01*
X-78354Y56472D01*
X-78571Y56391D01*
X-78781Y56295D01*
X-78984Y56185D01*
X-79360Y55927D01*
X-79691Y55625D01*
X-79976Y55279D01*
X-80217Y54890D01*
X-80407Y54471D01*
X-80543Y54035D01*
X-80591Y53810D01*
X-80625Y53581D01*
X-80645Y53349D01*
X-80652Y53111D01*
X-80635Y52729D01*
X-80583Y52367D01*
X-80498Y52025D01*
X-80378Y51704D01*
X-80223Y51403D01*
X-80034Y51122D01*
X-79811Y50861D01*
X-79554Y50621D01*
X-79267Y50405D01*
X-78956Y50219D01*
X-78619Y50060D01*
X-78258Y49931D01*
X-77872Y49830D01*
X-77462Y49758D01*
X-77027Y49715D01*
X-76567Y49701D01*
G37*
%LPD*%
G36*
X-71009Y12660D02*
X-72886Y12660D01*
X-72886Y21947D01*
X-74062Y21154D01*
X-75203Y20421D01*
X-76309Y19746D01*
X-77381Y19130D01*
X-78418Y18573D01*
X-79420Y18074D01*
X-80388Y17635D01*
X-81321Y17254D01*
X-82231Y16925D01*
X-83130Y16640D01*
X-84018Y16398D01*
X-84895Y16201D01*
X-85762Y16047D01*
X-86617Y15938D01*
X-87461Y15872D01*
X-88295Y15850D01*
X-88295Y18156D01*
X-87699Y18165D01*
X-87109Y18190D01*
X-86523Y18233D01*
X-85943Y18293D01*
X-85367Y18369D01*
X-84796Y18463D01*
X-84231Y18574D01*
X-83670Y18702D01*
X-83111Y18847D01*
X-82550Y19009D01*
X-81987Y19188D01*
X-81422Y19384D01*
X-80855Y19598D01*
X-80286Y19828D01*
X-79143Y20340D01*
X-78542Y20637D01*
X-77886Y20983D01*
X-76410Y21821D01*
X-74715Y22854D01*
X-72800Y24082D01*
X-71009Y24082D01*
X-71009Y12660D01*
G37*
G36*
X-85608Y27635D02*
X-88295Y27635D01*
X-88295Y30027D01*
X-85608Y30027D01*
X-85608Y27635D01*
G37*
D10*
X0Y0D02*
X0Y-93160D01*
X245872Y-93160D02*
X245872Y0D01*
X245222Y-73660D02*
X650Y-73660D01*
X26000Y-70468D01*
X26000Y-76852D01*
X650Y-73660D01*
X26000Y-72360D01*
X26000Y-74960D02*
X650Y-73660D01*
X26000Y-71060D01*
X26000Y-76260D02*
X650Y-73660D01*
X219872Y-70468D02*
X245222Y-73660D01*
X219872Y-70468D02*
X219872Y-76852D01*
X245222Y-73660D01*
X219872Y-72360D01*
X219872Y-74960D02*
X245222Y-73660D01*
X219872Y-71060D01*
X219872Y-76260D02*
X245222Y-73660D01*
X0Y70866D02*
X-84270Y70866D01*
X-84270Y0D02*
X0Y0D01*
X-64770Y650D02*
X-64770Y70216D01*
X-67962Y44866D01*
X-61578Y44866D01*
X-64770Y70216D01*
X-66070Y44866D01*
X-63470Y44866D02*
X-64770Y70216D01*
X-67370Y44866D01*
X-62170Y44866D02*
X-64770Y70216D01*
X-67962Y26000D02*
X-64770Y650D01*
X-67962Y26000D02*
X-61578Y26000D01*
X-64770Y650D01*
X-66070Y26000D01*
X-63470Y26000D02*
X-64770Y650D01*
X-67370Y26000D01*
X-62170Y26000D02*
X-64770Y650D01*
D11*
X41910Y17780D02*
X41910Y33020D01*
X67310Y33020D02*
X67310Y17780D01*
X92710Y17780D02*
X92710Y33020D01*
X118110Y33020D02*
X118110Y17780D01*
X192940Y23876D02*
X208180Y23876D01*
X208180Y49276D02*
X192940Y49276D01*
D12*
X173001Y49657D03*
X228001Y49657D03*
X173001Y24257D03*
X228001Y24257D03*
D13*
X141224Y18542D03*
D14*
X18542Y18542D03*
D15*
X33338Y50800D02*
X58738Y50800D01*
X125413Y47625D02*
X141288Y47625D01*
X125413Y47625D02*
X123825Y49213D01*
X92075Y49213D01*
X68263Y25400D01*
X67310Y25400D01*
D16*
X33338Y50800D03*
X58738Y50800D03*
X141288Y47625D03*
D15*
X71438Y53975D02*
X42863Y25400D01*
X71438Y53975D02*
X152400Y53975D01*
X157163Y49213D01*
X157163Y39688D01*
X171450Y25400D01*
X42863Y25400D02*
X41910Y25400D01*
X171450Y25400D02*
X173001Y24257D01*
X131763Y38100D02*
X128588Y38100D01*
X122238Y44450D01*
X112713Y44450D01*
X93663Y25400D01*
X92710Y25400D01*
D16*
X131763Y38100D03*
X150813Y46038D03*
D15*
X150813Y28131D01*
X141224Y18542D01*
X31750Y41275D02*
X26988Y46038D01*
X26988Y53975D01*
X31750Y58738D01*
X153988Y58738D01*
X161925Y50800D01*
X161925Y46038D01*
X169863Y38100D01*
X215900Y38100D01*
X227013Y49213D01*
X228001Y49657D01*
D16*
X31750Y41275D03*
M02*
