G04 EAGLE Gerber RS-274X export*
G75*
%MOMM*%
%FSLAX34Y34*%
%LPD*%
%INTop Copper*%
%IPPOS*%
%AMOC8*
5,1,8,0,0,1.08239X$1,22.5*%
G01*
G04 Define Apertures*
%ADD10C,0.130000*%
%ADD11C,1.524000*%
%ADD12R,1.164600X1.815300*%
%ADD13R,1.223500X0.624800*%
%ADD14C,1.498600*%
%ADD15R,1.676400X1.676400*%
%ADD16C,1.676400*%
%ADD17C,0.203200*%
%ADD18C,0.604000*%
G36*
X241442Y3890D02*
X241046Y3810D01*
X4826Y3810D01*
X4460Y3878D01*
X4119Y4096D01*
X3890Y4430D01*
X3810Y4826D01*
X3810Y66040D01*
X3878Y66406D01*
X4096Y66747D01*
X4430Y66976D01*
X4826Y67056D01*
X241046Y67056D01*
X241412Y66988D01*
X241753Y66770D01*
X241982Y66436D01*
X242062Y66040D01*
X242062Y4826D01*
X241994Y4460D01*
X241776Y4119D01*
X241442Y3890D01*
G37*
%LPC*%
G36*
X65491Y8636D02*
X69129Y8636D01*
X72490Y10028D01*
X75062Y12600D01*
X76454Y15961D01*
X76454Y34839D01*
X75062Y38200D01*
X73967Y39295D01*
X73763Y39587D01*
X73670Y39981D01*
X73738Y40379D01*
X73956Y40720D01*
X74289Y40949D01*
X74685Y41029D01*
X80560Y41029D01*
X81453Y41922D01*
X81453Y61337D01*
X80560Y62230D01*
X67652Y62230D01*
X66759Y61337D01*
X66759Y54356D01*
X66691Y53990D01*
X66473Y53649D01*
X66139Y53420D01*
X65743Y53340D01*
X63045Y53340D01*
X62663Y53414D01*
X62326Y53638D01*
X60620Y55344D01*
X56855Y55344D01*
X54572Y53061D01*
X54280Y52857D01*
X53886Y52764D01*
X53488Y52832D01*
X53147Y53050D01*
X52918Y53383D01*
X52838Y53780D01*
X52838Y61337D01*
X51945Y62230D01*
X39037Y62230D01*
X38144Y61337D01*
X38144Y54873D01*
X38081Y54521D01*
X37869Y54177D01*
X37539Y53943D01*
X37144Y53857D01*
X36747Y53931D01*
X36410Y54154D01*
X35220Y55344D01*
X31455Y55344D01*
X29749Y53638D01*
X29427Y53420D01*
X29030Y53340D01*
X24346Y53340D01*
X23980Y53408D01*
X23639Y53626D01*
X23410Y53960D01*
X23330Y54356D01*
X23330Y61337D01*
X22437Y62230D01*
X9529Y62230D01*
X8636Y61337D01*
X8636Y41922D01*
X9529Y41029D01*
X22437Y41029D01*
X23330Y41922D01*
X23330Y47244D01*
X23398Y47610D01*
X23616Y47951D01*
X23950Y48180D01*
X24346Y48260D01*
X29030Y48260D01*
X29412Y48186D01*
X29749Y47962D01*
X30162Y47550D01*
X30372Y47242D01*
X30459Y46847D01*
X30385Y46450D01*
X30162Y46113D01*
X27206Y43157D01*
X27206Y39393D01*
X29868Y36731D01*
X30930Y36731D01*
X31288Y36666D01*
X31631Y36450D01*
X31862Y36119D01*
X31945Y35723D01*
X31868Y35326D01*
X31750Y35041D01*
X31750Y26162D01*
X52070Y26162D01*
X52070Y35041D01*
X50523Y38775D01*
X50004Y39295D01*
X49800Y39587D01*
X49707Y39981D01*
X49775Y40379D01*
X49992Y40720D01*
X50326Y40949D01*
X50722Y41029D01*
X51945Y41029D01*
X52838Y41922D01*
X52838Y47820D01*
X52901Y48172D01*
X53113Y48516D01*
X53443Y48750D01*
X53838Y48836D01*
X54235Y48762D01*
X54572Y48539D01*
X56855Y46256D01*
X60620Y46256D01*
X62326Y47962D01*
X62648Y48180D01*
X63045Y48260D01*
X63119Y48260D01*
X63485Y48192D01*
X63826Y47974D01*
X64055Y47640D01*
X64135Y47244D01*
X64135Y42281D01*
X64064Y41907D01*
X63843Y41568D01*
X63508Y41342D01*
X62130Y40772D01*
X59558Y38200D01*
X58166Y34839D01*
X58166Y15961D01*
X59558Y12600D01*
X62130Y10028D01*
X65491Y8636D01*
G37*
G36*
X90891Y8636D02*
X94529Y8636D01*
X97890Y10028D01*
X100462Y12600D01*
X101854Y15961D01*
X101854Y34839D01*
X101528Y35625D01*
X101452Y35966D01*
X101513Y36365D01*
X101726Y36709D01*
X102056Y36943D01*
X102451Y37030D01*
X102848Y36956D01*
X103185Y36733D01*
X108668Y31249D01*
X108886Y30927D01*
X108966Y30531D01*
X108966Y15961D01*
X110358Y12600D01*
X112930Y10028D01*
X116291Y8636D01*
X119929Y8636D01*
X123290Y10028D01*
X125862Y12600D01*
X127254Y15961D01*
X127254Y28194D01*
X127322Y28560D01*
X127540Y28901D01*
X127874Y29130D01*
X128270Y29210D01*
X130520Y29210D01*
X130871Y29147D01*
X131215Y28935D01*
X131449Y28605D01*
X131536Y28210D01*
X131462Y27813D01*
X131318Y27596D01*
X131318Y9529D01*
X132211Y8636D01*
X150237Y8636D01*
X151130Y9529D01*
X151130Y14986D01*
X151198Y15352D01*
X151416Y15693D01*
X151750Y15922D01*
X152146Y16002D01*
X155145Y16002D01*
X155526Y15928D01*
X155863Y15704D01*
X160900Y10668D01*
X190473Y10668D01*
X194239Y14434D01*
X194561Y14652D01*
X194957Y14732D01*
X209999Y14732D01*
X213360Y16124D01*
X215932Y18696D01*
X216750Y20671D01*
X216942Y20971D01*
X217270Y21207D01*
X217664Y21297D01*
X218062Y21226D01*
X218401Y21006D01*
X218627Y20671D01*
X219495Y18574D01*
X222318Y15751D01*
X226005Y14224D01*
X227239Y14224D01*
X227239Y34290D01*
X226005Y34290D01*
X222318Y32763D01*
X219495Y29940D01*
X218469Y27463D01*
X218277Y27162D01*
X217949Y26926D01*
X217555Y26836D01*
X217157Y26907D01*
X216818Y27127D01*
X216592Y27463D01*
X215932Y29056D01*
X213360Y31628D01*
X209999Y33020D01*
X191121Y33020D01*
X187760Y31628D01*
X185188Y29056D01*
X184469Y27320D01*
X184277Y27020D01*
X183949Y26783D01*
X183555Y26693D01*
X183157Y26764D01*
X182818Y26985D01*
X182592Y27320D01*
X181507Y29940D01*
X178684Y32763D01*
X174997Y34290D01*
X173763Y34290D01*
X173763Y23495D01*
X162968Y23495D01*
X162968Y22261D01*
X164495Y18574D01*
X165587Y17482D01*
X165791Y17190D01*
X165884Y16796D01*
X165816Y16398D01*
X165598Y16057D01*
X165265Y15828D01*
X164868Y15748D01*
X163425Y15748D01*
X163044Y15822D01*
X162707Y16046D01*
X157670Y21082D01*
X152146Y21082D01*
X151780Y21150D01*
X151439Y21368D01*
X151210Y21702D01*
X151130Y22098D01*
X151130Y27590D01*
X151006Y27768D01*
X150913Y28162D01*
X150980Y28560D01*
X151198Y28901D01*
X151532Y29130D01*
X151928Y29210D01*
X159802Y29210D01*
X170935Y40342D01*
X171257Y40560D01*
X171653Y40640D01*
X174795Y40640D01*
X178109Y42013D01*
X180645Y44549D01*
X181334Y46213D01*
X181527Y46513D01*
X181854Y46750D01*
X182249Y46840D01*
X182647Y46769D01*
X182986Y46548D01*
X183212Y46213D01*
X184327Y43521D01*
X187185Y40663D01*
X190919Y39116D01*
X199798Y39116D01*
X199798Y59436D01*
X190919Y59436D01*
X187185Y57889D01*
X184327Y55031D01*
X183369Y52720D01*
X183177Y52420D01*
X182849Y52183D01*
X182455Y52093D01*
X182057Y52164D01*
X181718Y52385D01*
X181492Y52720D01*
X180645Y54765D01*
X178109Y57301D01*
X174795Y58674D01*
X171207Y58674D01*
X167893Y57301D01*
X165357Y54765D01*
X163984Y51451D01*
X163984Y47863D01*
X165357Y44549D01*
X165939Y43967D01*
X166149Y43660D01*
X166236Y43265D01*
X166162Y42868D01*
X165939Y42531D01*
X160180Y36773D01*
X159888Y36569D01*
X159494Y36475D01*
X159096Y36543D01*
X158755Y36761D01*
X158526Y37095D01*
X158446Y37491D01*
X158446Y41321D01*
X157553Y42214D01*
X155868Y42214D01*
X155517Y42277D01*
X155173Y42489D01*
X154939Y42819D01*
X154852Y43214D01*
X154926Y43611D01*
X155150Y43948D01*
X155357Y44155D01*
X155357Y47920D01*
X153650Y49626D01*
X153433Y49948D01*
X153353Y50345D01*
X153353Y50902D01*
X153421Y51268D01*
X153639Y51609D01*
X153972Y51838D01*
X154369Y51918D01*
X157553Y51918D01*
X158446Y52811D01*
X158446Y60321D01*
X157553Y61214D01*
X144056Y61214D01*
X143163Y60321D01*
X143163Y53185D01*
X143095Y52819D01*
X142877Y52478D01*
X142543Y52249D01*
X142147Y52169D01*
X139405Y52169D01*
X138330Y51094D01*
X138023Y50883D01*
X137628Y50796D01*
X137230Y50871D01*
X136893Y51094D01*
X136273Y51714D01*
X122776Y51714D01*
X121883Y50821D01*
X121883Y43005D01*
X121907Y42905D01*
X121843Y42506D01*
X121628Y42164D01*
X121296Y41932D01*
X120900Y41849D01*
X120503Y41926D01*
X119929Y42164D01*
X116291Y42164D01*
X112930Y40772D01*
X110349Y38190D01*
X110041Y37980D01*
X109647Y37893D01*
X109249Y37967D01*
X108912Y38190D01*
X107808Y39295D01*
X107604Y39587D01*
X107510Y39981D01*
X107578Y40379D01*
X107796Y40720D01*
X108130Y40949D01*
X108526Y41029D01*
X110068Y41029D01*
X110961Y41922D01*
X110961Y61337D01*
X110068Y62230D01*
X97160Y62230D01*
X96267Y61337D01*
X96267Y42965D01*
X96202Y42606D01*
X95986Y42264D01*
X95655Y42032D01*
X95259Y41949D01*
X94862Y42026D01*
X94529Y42164D01*
X90891Y42164D01*
X87530Y40772D01*
X84958Y38200D01*
X83566Y34839D01*
X83566Y15961D01*
X84958Y12600D01*
X87530Y10028D01*
X90891Y8636D01*
G37*
G36*
X201322Y39116D02*
X210201Y39116D01*
X213935Y40663D01*
X216793Y43521D01*
X217849Y46071D01*
X218042Y46371D01*
X218369Y46607D01*
X218764Y46697D01*
X219162Y46626D01*
X219501Y46406D01*
X219727Y46071D01*
X220357Y44549D01*
X222893Y42013D01*
X226207Y40640D01*
X229795Y40640D01*
X233109Y42013D01*
X235645Y44549D01*
X237018Y47863D01*
X237018Y51451D01*
X235645Y54765D01*
X233109Y57301D01*
X229795Y58674D01*
X226207Y58674D01*
X222893Y57301D01*
X220357Y54765D01*
X219569Y52863D01*
X219377Y52562D01*
X219049Y52326D01*
X218654Y52236D01*
X218256Y52307D01*
X217918Y52527D01*
X217692Y52863D01*
X216793Y55031D01*
X213935Y57889D01*
X210201Y59436D01*
X201322Y59436D01*
X201322Y39116D01*
G37*
G36*
X162968Y25019D02*
X172239Y25019D01*
X172239Y34290D01*
X171005Y34290D01*
X167318Y32763D01*
X164495Y29940D01*
X162968Y26253D01*
X162968Y25019D01*
G37*
G36*
X228763Y25019D02*
X238034Y25019D01*
X238034Y26253D01*
X236507Y29940D01*
X233684Y32763D01*
X229997Y34290D01*
X228763Y34290D01*
X228763Y25019D01*
G37*
G36*
X7620Y19304D02*
X17780Y19304D01*
X17780Y29464D01*
X16369Y29464D01*
X12355Y27801D01*
X9283Y24729D01*
X7620Y20715D01*
X7620Y19304D01*
G37*
G36*
X19304Y19304D02*
X29464Y19304D01*
X29464Y20715D01*
X27801Y24729D01*
X24729Y27801D01*
X20715Y29464D01*
X19304Y29464D01*
X19304Y19304D01*
G37*
G36*
X42672Y7620D02*
X43931Y7620D01*
X47665Y9167D01*
X50523Y12025D01*
X52070Y15759D01*
X52070Y24638D01*
X42672Y24638D01*
X42672Y7620D01*
G37*
G36*
X39889Y7620D02*
X41148Y7620D01*
X41148Y24638D01*
X31750Y24638D01*
X31750Y15759D01*
X33297Y12025D01*
X36155Y9167D01*
X39889Y7620D01*
G37*
G36*
X228763Y14224D02*
X229997Y14224D01*
X233684Y15751D01*
X236507Y18574D01*
X238034Y22261D01*
X238034Y23495D01*
X228763Y23495D01*
X228763Y14224D01*
G37*
G36*
X19304Y7620D02*
X20715Y7620D01*
X24729Y9283D01*
X27801Y12355D01*
X29464Y16369D01*
X29464Y17780D01*
X19304Y17780D01*
X19304Y7620D01*
G37*
G36*
X16369Y7620D02*
X17780Y7620D01*
X17780Y17780D01*
X7620Y17780D01*
X7620Y16369D01*
X9283Y12355D01*
X12355Y9283D01*
X16369Y7620D01*
G37*
%LPD*%
G36*
X-39389Y90776D02*
X-39942Y90782D01*
X-40479Y90801D01*
X-41000Y90832D01*
X-41504Y90876D01*
X-41992Y90933D01*
X-42463Y91002D01*
X-42919Y91083D01*
X-43358Y91178D01*
X-43781Y91284D01*
X-44187Y91404D01*
X-44577Y91535D01*
X-44951Y91680D01*
X-45309Y91837D01*
X-45650Y92006D01*
X-45975Y92188D01*
X-46284Y92383D01*
X-46575Y92589D01*
X-46847Y92806D01*
X-47101Y93034D01*
X-47336Y93272D01*
X-47552Y93520D01*
X-47749Y93780D01*
X-47928Y94050D01*
X-48087Y94331D01*
X-48228Y94622D01*
X-48350Y94924D01*
X-48454Y95236D01*
X-48538Y95560D01*
X-48604Y95894D01*
X-48651Y96238D01*
X-48679Y96593D01*
X-48688Y96959D01*
X-48675Y97437D01*
X-48633Y97892D01*
X-48565Y98325D01*
X-48468Y98735D01*
X-48344Y99122D01*
X-48193Y99487D01*
X-48014Y99829D01*
X-47808Y100149D01*
X-47574Y100446D01*
X-47313Y100720D01*
X-47024Y100972D01*
X-46708Y101201D01*
X-46364Y101407D01*
X-45993Y101591D01*
X-45594Y101752D01*
X-45167Y101891D01*
X-44787Y99781D01*
X-45043Y99693D01*
X-45282Y99594D01*
X-45504Y99482D01*
X-45710Y99359D01*
X-45900Y99223D01*
X-46073Y99076D01*
X-46230Y98916D01*
X-46370Y98744D01*
X-46493Y98560D01*
X-46600Y98364D01*
X-46691Y98156D01*
X-46765Y97936D01*
X-46823Y97704D01*
X-46864Y97459D01*
X-46889Y97203D01*
X-46897Y96934D01*
X-46890Y96702D01*
X-46870Y96475D01*
X-46835Y96256D01*
X-46787Y96043D01*
X-46725Y95837D01*
X-46650Y95637D01*
X-46457Y95258D01*
X-46210Y94906D01*
X-45907Y94580D01*
X-45549Y94281D01*
X-45137Y94009D01*
X-44672Y93766D01*
X-44158Y93555D01*
X-43595Y93377D01*
X-42982Y93231D01*
X-42320Y93118D01*
X-41609Y93037D01*
X-40849Y92988D01*
X-40039Y92972D01*
X-40310Y93130D01*
X-40564Y93303D01*
X-40802Y93492D01*
X-41022Y93696D01*
X-41226Y93915D01*
X-41414Y94150D01*
X-41584Y94400D01*
X-41738Y94665D01*
X-41875Y94943D01*
X-41993Y95231D01*
X-42094Y95529D01*
X-42176Y95836D01*
X-42239Y96154D01*
X-42285Y96482D01*
X-42312Y96820D01*
X-42321Y97168D01*
X-42298Y97750D01*
X-42228Y98302D01*
X-42111Y98823D01*
X-41947Y99313D01*
X-41737Y99772D01*
X-41479Y100200D01*
X-41175Y100598D01*
X-40825Y100965D01*
X-40434Y101294D01*
X-40012Y101579D01*
X-39557Y101820D01*
X-39070Y102018D01*
X-38551Y102172D01*
X-38000Y102281D01*
X-37416Y102347D01*
X-36801Y102369D01*
X-36135Y102346D01*
X-35505Y102276D01*
X-34911Y102160D01*
X-34353Y101998D01*
X-33831Y101789D01*
X-33346Y101534D01*
X-32896Y101233D01*
X-32482Y100885D01*
X-32111Y100496D01*
X-31790Y100072D01*
X-31518Y99613D01*
X-31295Y99118D01*
X-31122Y98588D01*
X-31054Y98310D01*
X-30999Y98023D01*
X-30955Y97727D01*
X-30924Y97423D01*
X-30906Y97109D01*
X-30900Y96787D01*
X-30908Y96428D01*
X-30934Y96079D01*
X-30976Y95741D01*
X-31035Y95413D01*
X-31112Y95097D01*
X-31205Y94791D01*
X-31315Y94495D01*
X-31443Y94211D01*
X-31587Y93937D01*
X-31748Y93674D01*
X-31926Y93422D01*
X-32121Y93180D01*
X-32333Y92950D01*
X-32562Y92730D01*
X-32808Y92520D01*
X-33071Y92322D01*
X-33350Y92134D01*
X-33645Y91959D01*
X-33955Y91796D01*
X-34280Y91645D01*
X-34621Y91506D01*
X-34977Y91380D01*
X-35349Y91265D01*
X-35736Y91162D01*
X-36139Y91072D01*
X-36557Y90993D01*
X-36990Y90927D01*
X-37439Y90872D01*
X-37904Y90830D01*
X-38383Y90800D01*
X-38879Y90782D01*
X-39389Y90776D01*
G37*
%LPC*%
G36*
X-37230Y93193D02*
X-36741Y93208D01*
X-36275Y93254D01*
X-35832Y93332D01*
X-35411Y93440D01*
X-35013Y93578D01*
X-34638Y93748D01*
X-34285Y93949D01*
X-33954Y94180D01*
X-33655Y94436D01*
X-33396Y94709D01*
X-33177Y94999D01*
X-32997Y95307D01*
X-32858Y95633D01*
X-32758Y95976D01*
X-32698Y96336D01*
X-32679Y96714D01*
X-32695Y97102D01*
X-32746Y97468D01*
X-32829Y97813D01*
X-32947Y98137D01*
X-33098Y98439D01*
X-33282Y98719D01*
X-33500Y98979D01*
X-33752Y99216D01*
X-34033Y99429D01*
X-34339Y99613D01*
X-34670Y99770D01*
X-35026Y99897D01*
X-35408Y99996D01*
X-35814Y100067D01*
X-36246Y100110D01*
X-36702Y100124D01*
X-37158Y100110D01*
X-37587Y100067D01*
X-37989Y99995D01*
X-38365Y99894D01*
X-38713Y99765D01*
X-39035Y99607D01*
X-39330Y99420D01*
X-39598Y99204D01*
X-39836Y98963D01*
X-40043Y98699D01*
X-40218Y98412D01*
X-40361Y98103D01*
X-40473Y97771D01*
X-40552Y97417D01*
X-40600Y97040D01*
X-40616Y96640D01*
X-40602Y96263D01*
X-40560Y95904D01*
X-40489Y95564D01*
X-40391Y95243D01*
X-40264Y94940D01*
X-40109Y94656D01*
X-39926Y94390D01*
X-39714Y94143D01*
X-39478Y93921D01*
X-39221Y93727D01*
X-38942Y93564D01*
X-38642Y93430D01*
X-38321Y93326D01*
X-37979Y93252D01*
X-37615Y93208D01*
X-37230Y93193D01*
G37*
%LPD*%
G36*
X-35009Y125412D02*
X-35267Y127645D01*
X-34957Y127741D01*
X-34666Y127854D01*
X-34396Y127984D01*
X-34145Y128132D01*
X-33915Y128297D01*
X-33705Y128478D01*
X-33514Y128677D01*
X-33344Y128893D01*
X-33194Y129127D01*
X-33064Y129377D01*
X-32953Y129644D01*
X-32863Y129929D01*
X-32793Y130231D01*
X-32743Y130550D01*
X-32713Y130886D01*
X-32703Y131240D01*
X-32720Y131672D01*
X-32770Y132081D01*
X-32854Y132465D01*
X-32971Y132825D01*
X-33122Y133161D01*
X-33307Y133473D01*
X-33525Y133761D01*
X-33777Y134024D01*
X-34057Y134260D01*
X-34363Y134465D01*
X-34695Y134637D01*
X-35051Y134779D01*
X-35432Y134889D01*
X-35839Y134968D01*
X-36270Y135015D01*
X-36727Y135030D01*
X-37125Y135015D01*
X-37504Y134967D01*
X-37863Y134888D01*
X-38202Y134777D01*
X-38522Y134635D01*
X-38823Y134461D01*
X-39103Y134255D01*
X-39365Y134018D01*
X-39600Y133754D01*
X-39805Y133468D01*
X-39978Y133160D01*
X-40119Y132830D01*
X-40229Y132478D01*
X-40308Y132103D01*
X-40355Y131707D01*
X-40371Y131289D01*
X-40353Y130849D01*
X-40300Y130424D01*
X-40212Y130014D01*
X-40088Y129620D01*
X-39923Y129234D01*
X-39708Y128847D01*
X-39444Y128461D01*
X-39132Y128074D01*
X-39132Y125915D01*
X-48431Y126492D01*
X-48431Y136319D01*
X-46554Y136319D01*
X-46554Y128504D01*
X-41070Y128173D01*
X-41329Y128542D01*
X-41553Y128934D01*
X-41743Y129347D01*
X-41898Y129783D01*
X-42019Y130240D01*
X-42105Y130719D01*
X-42157Y131220D01*
X-42174Y131743D01*
X-42151Y132364D01*
X-42080Y132954D01*
X-41964Y133511D01*
X-41800Y134035D01*
X-41589Y134527D01*
X-41332Y134987D01*
X-41028Y135414D01*
X-40677Y135809D01*
X-40289Y136165D01*
X-39872Y136472D01*
X-39427Y136733D01*
X-38954Y136946D01*
X-38452Y137111D01*
X-37922Y137230D01*
X-37363Y137301D01*
X-36776Y137325D01*
X-36439Y137318D01*
X-36110Y137299D01*
X-35791Y137267D01*
X-35481Y137223D01*
X-35180Y137166D01*
X-34888Y137096D01*
X-34605Y137013D01*
X-34332Y136918D01*
X-33812Y136690D01*
X-33328Y136410D01*
X-32881Y136080D01*
X-32470Y135699D01*
X-32102Y135273D01*
X-31783Y134808D01*
X-31513Y134303D01*
X-31292Y133759D01*
X-31120Y133176D01*
X-31053Y132870D01*
X-30998Y132553D01*
X-30955Y132227D01*
X-30924Y131892D01*
X-30906Y131546D01*
X-30900Y131190D01*
X-30916Y130601D01*
X-30966Y130040D01*
X-31048Y129509D01*
X-31163Y129007D01*
X-31312Y128534D01*
X-31493Y128090D01*
X-31707Y127675D01*
X-31955Y127289D01*
X-32233Y126935D01*
X-32541Y126615D01*
X-32879Y126329D01*
X-33246Y126078D01*
X-33643Y125860D01*
X-34069Y125677D01*
X-34524Y125527D01*
X-35009Y125412D01*
G37*
G36*
X-35586Y111394D02*
X-35795Y113676D01*
X-35423Y113743D01*
X-35076Y113832D01*
X-34752Y113943D01*
X-34453Y114077D01*
X-34177Y114234D01*
X-33926Y114413D01*
X-33698Y114615D01*
X-33494Y114839D01*
X-33315Y115085D01*
X-33159Y115355D01*
X-33027Y115646D01*
X-32919Y115960D01*
X-32835Y116297D01*
X-32776Y116656D01*
X-32740Y117038D01*
X-32728Y117443D01*
X-32740Y117848D01*
X-32779Y118232D01*
X-32843Y118593D01*
X-32933Y118932D01*
X-33049Y119248D01*
X-33190Y119542D01*
X-33357Y119813D01*
X-33550Y120062D01*
X-33767Y120285D01*
X-34010Y120478D01*
X-34278Y120641D01*
X-34571Y120775D01*
X-34888Y120879D01*
X-35231Y120953D01*
X-35598Y120998D01*
X-35991Y121013D01*
X-36334Y120996D01*
X-36658Y120945D01*
X-36962Y120860D01*
X-37247Y120741D01*
X-37512Y120588D01*
X-37759Y120402D01*
X-37986Y120181D01*
X-38193Y119927D01*
X-38378Y119640D01*
X-38539Y119324D01*
X-38675Y118977D01*
X-38786Y118600D01*
X-38873Y118194D01*
X-38935Y117757D01*
X-38972Y117290D01*
X-38984Y116792D01*
X-38984Y115541D01*
X-40898Y115541D01*
X-40898Y116743D01*
X-40910Y117184D01*
X-40948Y117600D01*
X-41009Y117990D01*
X-41096Y118355D01*
X-41207Y118694D01*
X-41343Y119008D01*
X-41504Y119296D01*
X-41689Y119559D01*
X-41897Y119793D01*
X-42123Y119996D01*
X-42368Y120168D01*
X-42633Y120309D01*
X-42916Y120418D01*
X-43218Y120496D01*
X-43539Y120543D01*
X-43879Y120559D01*
X-44217Y120546D01*
X-44536Y120508D01*
X-44837Y120444D01*
X-45120Y120355D01*
X-45384Y120240D01*
X-45631Y120100D01*
X-45859Y119934D01*
X-46069Y119743D01*
X-46257Y119527D01*
X-46421Y119285D01*
X-46559Y119020D01*
X-46672Y118729D01*
X-46760Y118414D01*
X-46822Y118074D01*
X-46860Y117709D01*
X-46873Y117320D01*
X-46861Y116964D01*
X-46826Y116625D01*
X-46767Y116303D01*
X-46686Y116000D01*
X-46580Y115713D01*
X-46452Y115444D01*
X-46300Y115192D01*
X-46124Y114958D01*
X-45928Y114745D01*
X-45712Y114555D01*
X-45477Y114388D01*
X-45223Y114245D01*
X-44949Y114126D01*
X-44657Y114030D01*
X-44345Y113958D01*
X-44014Y113909D01*
X-44186Y111689D01*
X-44702Y111770D01*
X-45189Y111891D01*
X-45647Y112051D01*
X-46075Y112252D01*
X-46475Y112492D01*
X-46845Y112771D01*
X-47186Y113090D01*
X-47498Y113449D01*
X-47777Y113842D01*
X-48019Y114261D01*
X-48223Y114707D01*
X-48391Y115181D01*
X-48521Y115681D01*
X-48614Y116208D01*
X-48670Y116763D01*
X-48688Y117344D01*
X-48669Y117977D01*
X-48613Y118572D01*
X-48518Y119132D01*
X-48386Y119655D01*
X-48216Y120143D01*
X-48009Y120594D01*
X-47763Y121008D01*
X-47480Y121387D01*
X-47163Y121725D01*
X-46816Y122017D01*
X-46440Y122265D01*
X-46034Y122468D01*
X-45598Y122626D01*
X-45133Y122738D01*
X-44637Y122806D01*
X-44112Y122828D01*
X-43708Y122814D01*
X-43323Y122770D01*
X-42957Y122698D01*
X-42611Y122597D01*
X-42284Y122466D01*
X-41977Y122307D01*
X-41688Y122119D01*
X-41420Y121902D01*
X-41171Y121657D01*
X-40943Y121386D01*
X-40736Y121089D01*
X-40550Y120766D01*
X-40385Y120416D01*
X-40241Y120040D01*
X-40117Y119638D01*
X-40015Y119209D01*
X-39966Y119209D01*
X-39900Y119680D01*
X-39806Y120125D01*
X-39685Y120542D01*
X-39536Y120933D01*
X-39360Y121297D01*
X-39156Y121634D01*
X-38924Y121944D01*
X-38665Y122227D01*
X-38384Y122480D01*
X-38084Y122699D01*
X-37767Y122885D01*
X-37432Y123037D01*
X-37080Y123155D01*
X-36710Y123239D01*
X-36323Y123290D01*
X-35917Y123307D01*
X-35622Y123301D01*
X-35336Y123283D01*
X-34789Y123212D01*
X-34275Y123093D01*
X-33795Y122926D01*
X-33349Y122712D01*
X-32936Y122451D01*
X-32557Y122142D01*
X-32212Y121785D01*
X-31905Y121385D01*
X-31638Y120944D01*
X-31412Y120462D01*
X-31228Y119939D01*
X-31084Y119376D01*
X-30982Y118772D01*
X-30920Y118128D01*
X-30900Y117443D01*
X-30918Y116803D01*
X-30974Y116196D01*
X-31066Y115623D01*
X-31196Y115082D01*
X-31362Y114575D01*
X-31566Y114101D01*
X-31806Y113661D01*
X-32084Y113253D01*
X-32397Y112882D01*
X-32746Y112550D01*
X-33131Y112258D01*
X-33551Y112006D01*
X-34007Y111794D01*
X-34498Y111621D01*
X-35024Y111488D01*
X-35586Y111394D01*
G37*
G36*
X-31145Y105763D02*
X-33832Y105763D01*
X-33832Y108155D01*
X-31145Y108155D01*
X-31145Y105763D01*
G37*
G36*
X141421Y-32600D02*
X141055Y-32591D01*
X140699Y-32565D01*
X140356Y-32521D01*
X140024Y-32459D01*
X139703Y-32379D01*
X139394Y-32281D01*
X139097Y-32166D01*
X138811Y-32033D01*
X138537Y-31882D01*
X138275Y-31714D01*
X138024Y-31528D01*
X137785Y-31324D01*
X137557Y-31102D01*
X137341Y-30863D01*
X137136Y-30606D01*
X136944Y-30331D01*
X136762Y-30039D01*
X136593Y-29731D01*
X136435Y-29406D01*
X136289Y-29066D01*
X136154Y-28709D01*
X136032Y-28335D01*
X135920Y-27946D01*
X135821Y-27540D01*
X135733Y-27118D01*
X135657Y-26679D01*
X135593Y-26224D01*
X135540Y-25753D01*
X135499Y-25266D01*
X135470Y-24762D01*
X135453Y-24242D01*
X135447Y-23706D01*
X135470Y-22628D01*
X135498Y-22115D01*
X135538Y-21619D01*
X135589Y-21141D01*
X135651Y-20680D01*
X135725Y-20237D01*
X135810Y-19811D01*
X135907Y-19403D01*
X136015Y-19012D01*
X136134Y-18638D01*
X136265Y-18282D01*
X136407Y-17943D01*
X136560Y-17622D01*
X136725Y-17319D01*
X136901Y-17032D01*
X137089Y-16763D01*
X137290Y-16512D01*
X137505Y-16278D01*
X137733Y-16061D01*
X137974Y-15861D01*
X138228Y-15679D01*
X138496Y-15514D01*
X138776Y-15367D01*
X139070Y-15237D01*
X139377Y-15124D01*
X139697Y-15029D01*
X140030Y-14950D01*
X140377Y-14890D01*
X140736Y-14846D01*
X141109Y-14820D01*
X141495Y-14812D01*
X141871Y-14820D01*
X142234Y-14847D01*
X142584Y-14891D01*
X142922Y-14952D01*
X143248Y-15031D01*
X143561Y-15127D01*
X143861Y-15241D01*
X144150Y-15373D01*
X144425Y-15522D01*
X144688Y-15689D01*
X144939Y-15873D01*
X145177Y-16075D01*
X145402Y-16294D01*
X145615Y-16531D01*
X145816Y-16785D01*
X146004Y-17057D01*
X146180Y-17346D01*
X146344Y-17652D01*
X146498Y-17975D01*
X146640Y-18314D01*
X146770Y-18671D01*
X146889Y-19044D01*
X146997Y-19434D01*
X147094Y-19842D01*
X147179Y-20266D01*
X147253Y-20707D01*
X147315Y-21164D01*
X147366Y-21639D01*
X147435Y-22639D01*
X147457Y-23706D01*
X147451Y-24239D01*
X147433Y-24757D01*
X147404Y-25258D01*
X147362Y-25743D01*
X147308Y-26213D01*
X147243Y-26666D01*
X147165Y-27103D01*
X147075Y-27524D01*
X146974Y-27930D01*
X146861Y-28319D01*
X146735Y-28692D01*
X146598Y-29050D01*
X146449Y-29391D01*
X146288Y-29716D01*
X146115Y-30025D01*
X145930Y-30319D01*
X145733Y-30595D01*
X145525Y-30853D01*
X145306Y-31094D01*
X145075Y-31317D01*
X144833Y-31522D01*
X144580Y-31709D01*
X144315Y-31878D01*
X144039Y-32030D01*
X143752Y-32164D01*
X143453Y-32280D01*
X143143Y-32378D01*
X142821Y-32458D01*
X142488Y-32520D01*
X142144Y-32565D01*
X141788Y-32591D01*
X141421Y-32600D01*
G37*
%LPC*%
G36*
X141446Y-30797D02*
X141686Y-30790D01*
X141917Y-30770D01*
X142141Y-30736D01*
X142356Y-30688D01*
X142563Y-30627D01*
X142762Y-30552D01*
X142953Y-30464D01*
X143136Y-30361D01*
X143477Y-30116D01*
X143785Y-29817D01*
X144061Y-29463D01*
X144304Y-29055D01*
X144517Y-28590D01*
X144702Y-28067D01*
X144858Y-27486D01*
X144985Y-26847D01*
X145085Y-26149D01*
X145155Y-25393D01*
X145198Y-24579D01*
X145212Y-23706D01*
X145199Y-22803D01*
X145158Y-21964D01*
X145091Y-21190D01*
X144996Y-20480D01*
X144874Y-19834D01*
X144726Y-19253D01*
X144550Y-18736D01*
X144347Y-18284D01*
X144114Y-17890D01*
X143845Y-17548D01*
X143541Y-17259D01*
X143202Y-17023D01*
X142828Y-16839D01*
X142628Y-16767D01*
X142419Y-16708D01*
X142201Y-16662D01*
X141974Y-16629D01*
X141739Y-16609D01*
X141495Y-16603D01*
X141245Y-16609D01*
X141004Y-16629D01*
X140772Y-16661D01*
X140548Y-16706D01*
X140334Y-16765D01*
X140129Y-16836D01*
X139745Y-17017D01*
X139397Y-17250D01*
X139085Y-17534D01*
X138809Y-17871D01*
X138569Y-18259D01*
X138361Y-18706D01*
X138180Y-19221D01*
X138027Y-19801D01*
X137902Y-20449D01*
X137805Y-21163D01*
X137735Y-21944D01*
X137694Y-22792D01*
X137680Y-23706D01*
X137694Y-24595D01*
X137736Y-25423D01*
X137806Y-26189D01*
X137905Y-26893D01*
X138032Y-27535D01*
X138187Y-28116D01*
X138370Y-28635D01*
X138581Y-29092D01*
X138823Y-29491D01*
X139099Y-29838D01*
X139407Y-30131D01*
X139748Y-30371D01*
X140123Y-30557D01*
X140323Y-30630D01*
X140531Y-30690D01*
X140747Y-30737D01*
X140972Y-30770D01*
X141205Y-30790D01*
X141446Y-30797D01*
G37*
%LPD*%
G36*
X127281Y-32600D02*
X126691Y-32584D01*
X126131Y-32534D01*
X125599Y-32452D01*
X125097Y-32337D01*
X124624Y-32188D01*
X124180Y-32007D01*
X123765Y-31793D01*
X123380Y-31545D01*
X123026Y-31267D01*
X122706Y-30959D01*
X122420Y-30621D01*
X122168Y-30254D01*
X121951Y-29858D01*
X121767Y-29431D01*
X121618Y-28976D01*
X121503Y-28491D01*
X123735Y-28233D01*
X123831Y-28543D01*
X123945Y-28834D01*
X124075Y-29104D01*
X124222Y-29355D01*
X124387Y-29585D01*
X124569Y-29795D01*
X124768Y-29986D01*
X124984Y-30156D01*
X125217Y-30306D01*
X125467Y-30436D01*
X125735Y-30547D01*
X126020Y-30637D01*
X126321Y-30707D01*
X126640Y-30757D01*
X126977Y-30787D01*
X127330Y-30797D01*
X127763Y-30780D01*
X128171Y-30730D01*
X128555Y-30646D01*
X128916Y-30529D01*
X129252Y-30378D01*
X129564Y-30193D01*
X129851Y-29975D01*
X130115Y-29724D01*
X130351Y-29443D01*
X130555Y-29137D01*
X130728Y-28805D01*
X130869Y-28449D01*
X130979Y-28068D01*
X131058Y-27661D01*
X131105Y-27230D01*
X131121Y-26773D01*
X131105Y-26375D01*
X131058Y-25996D01*
X130978Y-25637D01*
X130868Y-25298D01*
X130725Y-24978D01*
X130551Y-24678D01*
X130346Y-24397D01*
X130109Y-24135D01*
X129845Y-23900D01*
X129559Y-23695D01*
X129250Y-23522D01*
X128920Y-23381D01*
X128568Y-23271D01*
X128194Y-23192D01*
X127797Y-23145D01*
X127379Y-23129D01*
X126939Y-23147D01*
X126514Y-23200D01*
X126105Y-23288D01*
X125711Y-23412D01*
X125324Y-23577D01*
X124938Y-23792D01*
X124551Y-24056D01*
X124165Y-24369D01*
X122006Y-24369D01*
X122582Y-15069D01*
X132409Y-15069D01*
X132409Y-16946D01*
X124594Y-16946D01*
X124263Y-22430D01*
X124633Y-22171D01*
X125024Y-21947D01*
X125438Y-21757D01*
X125873Y-21602D01*
X126330Y-21481D01*
X126809Y-21395D01*
X127310Y-21343D01*
X127833Y-21326D01*
X128455Y-21349D01*
X129044Y-21420D01*
X129601Y-21537D01*
X130126Y-21700D01*
X130618Y-21911D01*
X131077Y-22168D01*
X131505Y-22472D01*
X131900Y-22823D01*
X132255Y-23211D01*
X132563Y-23628D01*
X132823Y-24073D01*
X133036Y-24546D01*
X133202Y-25048D01*
X133320Y-25578D01*
X133391Y-26137D01*
X133415Y-26724D01*
X133409Y-27061D01*
X133390Y-27390D01*
X133358Y-27709D01*
X133313Y-28019D01*
X133256Y-28320D01*
X133186Y-28612D01*
X133104Y-28895D01*
X133009Y-29168D01*
X132780Y-29688D01*
X132501Y-30172D01*
X132170Y-30619D01*
X131789Y-31030D01*
X131363Y-31398D01*
X130898Y-31717D01*
X130393Y-31987D01*
X129850Y-32208D01*
X129266Y-32380D01*
X128960Y-32447D01*
X128644Y-32502D01*
X128318Y-32545D01*
X127982Y-32576D01*
X127636Y-32594D01*
X127281Y-32600D01*
G37*
G36*
X106564Y-32600D02*
X105924Y-32582D01*
X105318Y-32526D01*
X104744Y-32434D01*
X104204Y-32304D01*
X103697Y-32138D01*
X103223Y-31934D01*
X102782Y-31694D01*
X102375Y-31417D01*
X102003Y-31103D01*
X101672Y-30754D01*
X101380Y-30369D01*
X101128Y-29949D01*
X100915Y-29493D01*
X100743Y-29002D01*
X100610Y-28476D01*
X100516Y-27914D01*
X102798Y-27705D01*
X102864Y-28077D01*
X102953Y-28424D01*
X103065Y-28748D01*
X103199Y-29047D01*
X103355Y-29323D01*
X103535Y-29574D01*
X103736Y-29802D01*
X103960Y-30006D01*
X104207Y-30185D01*
X104476Y-30341D01*
X104768Y-30473D01*
X105082Y-30581D01*
X105419Y-30665D01*
X105778Y-30725D01*
X106160Y-30760D01*
X106564Y-30772D01*
X106970Y-30760D01*
X107354Y-30721D01*
X107715Y-30657D01*
X108053Y-30567D01*
X108369Y-30451D01*
X108663Y-30310D01*
X108935Y-30143D01*
X109183Y-29950D01*
X109406Y-29733D01*
X109599Y-29490D01*
X109763Y-29222D01*
X109897Y-28929D01*
X110001Y-28612D01*
X110075Y-28269D01*
X110119Y-27902D01*
X110134Y-27509D01*
X110117Y-27166D01*
X110066Y-26842D01*
X109982Y-26538D01*
X109863Y-26253D01*
X109710Y-25988D01*
X109524Y-25741D01*
X109303Y-25515D01*
X109049Y-25307D01*
X108762Y-25122D01*
X108445Y-24961D01*
X108099Y-24825D01*
X107722Y-24714D01*
X107315Y-24627D01*
X106878Y-24565D01*
X106411Y-24528D01*
X105914Y-24516D01*
X104663Y-24516D01*
X104663Y-22602D01*
X105865Y-22602D01*
X106306Y-22590D01*
X106722Y-22552D01*
X107112Y-22491D01*
X107477Y-22404D01*
X107816Y-22293D01*
X108130Y-22157D01*
X108418Y-21996D01*
X108680Y-21811D01*
X108915Y-21603D01*
X109118Y-21377D01*
X109290Y-21132D01*
X109430Y-20868D01*
X109540Y-20584D01*
X109618Y-20282D01*
X109665Y-19961D01*
X109680Y-19621D01*
X109668Y-19283D01*
X109629Y-18964D01*
X109566Y-18663D01*
X109476Y-18380D01*
X109362Y-18116D01*
X109221Y-17869D01*
X109056Y-17641D01*
X108864Y-17431D01*
X108648Y-17243D01*
X108407Y-17079D01*
X108141Y-16941D01*
X107851Y-16828D01*
X107536Y-16740D01*
X107196Y-16678D01*
X106831Y-16640D01*
X106442Y-16627D01*
X106085Y-16639D01*
X105746Y-16674D01*
X105425Y-16733D01*
X105121Y-16814D01*
X104835Y-16920D01*
X104566Y-17048D01*
X104314Y-17200D01*
X104080Y-17376D01*
X103866Y-17572D01*
X103676Y-17788D01*
X103510Y-18023D01*
X103367Y-18277D01*
X103248Y-18551D01*
X103152Y-18843D01*
X103080Y-19155D01*
X103031Y-19486D01*
X100810Y-19314D01*
X100892Y-18798D01*
X101013Y-18311D01*
X101173Y-17853D01*
X101373Y-17425D01*
X101613Y-17025D01*
X101893Y-16655D01*
X102212Y-16314D01*
X102571Y-16002D01*
X102963Y-15723D01*
X103383Y-15481D01*
X103829Y-15277D01*
X104302Y-15109D01*
X104803Y-14979D01*
X105330Y-14886D01*
X105885Y-14830D01*
X106466Y-14812D01*
X107098Y-14831D01*
X107694Y-14887D01*
X108254Y-14982D01*
X108777Y-15114D01*
X109264Y-15284D01*
X109715Y-15491D01*
X110130Y-15737D01*
X110508Y-16020D01*
X110846Y-16337D01*
X111139Y-16684D01*
X111387Y-17060D01*
X111590Y-17466D01*
X111747Y-17902D01*
X111860Y-18368D01*
X111927Y-18863D01*
X111950Y-19388D01*
X111935Y-19792D01*
X111892Y-20177D01*
X111820Y-20543D01*
X111718Y-20889D01*
X111588Y-21216D01*
X111429Y-21523D01*
X111241Y-21812D01*
X111024Y-22081D01*
X110779Y-22329D01*
X110508Y-22557D01*
X110211Y-22764D01*
X109887Y-22950D01*
X109538Y-23115D01*
X109162Y-23259D01*
X108759Y-23383D01*
X108331Y-23485D01*
X108331Y-23534D01*
X108802Y-23600D01*
X109246Y-23694D01*
X109664Y-23815D01*
X110054Y-23964D01*
X110418Y-24140D01*
X110755Y-24344D01*
X111065Y-24576D01*
X111349Y-24835D01*
X111602Y-25116D01*
X111821Y-25416D01*
X112007Y-25733D01*
X112158Y-26068D01*
X112277Y-26420D01*
X112361Y-26790D01*
X112411Y-27178D01*
X112428Y-27583D01*
X112422Y-27878D01*
X112405Y-28164D01*
X112333Y-28711D01*
X112214Y-29225D01*
X112048Y-29705D01*
X111834Y-30151D01*
X111573Y-30564D01*
X111264Y-30943D01*
X110907Y-31288D01*
X110506Y-31595D01*
X110065Y-31862D01*
X109583Y-32088D01*
X109061Y-32272D01*
X108498Y-32416D01*
X107894Y-32518D01*
X107249Y-32580D01*
X106564Y-32600D01*
G37*
G36*
X98300Y-32355D02*
X86854Y-32355D01*
X86854Y-30797D01*
X87184Y-30100D01*
X87549Y-29446D01*
X87948Y-28834D01*
X88381Y-28264D01*
X88838Y-27728D01*
X89306Y-27218D01*
X89786Y-26734D01*
X90277Y-26276D01*
X91266Y-25419D01*
X92246Y-24626D01*
X93174Y-23866D01*
X94006Y-23105D01*
X94380Y-22720D01*
X94716Y-22326D01*
X95015Y-21923D01*
X95276Y-21510D01*
X95390Y-21298D01*
X95488Y-21079D01*
X95571Y-20853D01*
X95639Y-20621D01*
X95692Y-20381D01*
X95730Y-20135D01*
X95753Y-19881D01*
X95761Y-19621D01*
X95748Y-19275D01*
X95708Y-18949D01*
X95643Y-18643D01*
X95552Y-18357D01*
X95435Y-18091D01*
X95291Y-17845D01*
X95122Y-17619D01*
X94926Y-17413D01*
X94708Y-17229D01*
X94469Y-17069D01*
X94209Y-16934D01*
X93930Y-16824D01*
X93630Y-16738D01*
X93309Y-16676D01*
X92969Y-16640D01*
X92608Y-16627D01*
X92263Y-16639D01*
X91933Y-16675D01*
X91619Y-16735D01*
X91321Y-16819D01*
X91038Y-16927D01*
X90771Y-17059D01*
X90519Y-17214D01*
X90283Y-17394D01*
X90066Y-17595D01*
X89873Y-17816D01*
X89704Y-18056D01*
X89558Y-18316D01*
X89435Y-18595D01*
X89336Y-18893D01*
X89261Y-19210D01*
X89209Y-19547D01*
X86952Y-19339D01*
X87033Y-18834D01*
X87154Y-18355D01*
X87315Y-17903D01*
X87515Y-17477D01*
X87755Y-17078D01*
X88034Y-16705D01*
X88354Y-16358D01*
X88713Y-16039D01*
X89105Y-15751D01*
X89524Y-15502D01*
X89971Y-15291D01*
X90444Y-15118D01*
X90944Y-14984D01*
X91472Y-14888D01*
X92026Y-14831D01*
X92608Y-14812D01*
X93242Y-14831D01*
X93839Y-14889D01*
X94398Y-14985D01*
X94919Y-15120D01*
X95402Y-15293D01*
X95848Y-15505D01*
X96255Y-15756D01*
X96626Y-16045D01*
X96955Y-16369D01*
X97240Y-16726D01*
X97482Y-17115D01*
X97679Y-17537D01*
X97833Y-17991D01*
X97942Y-18477D01*
X98008Y-18996D01*
X98030Y-19547D01*
X98023Y-19798D01*
X98001Y-20049D01*
X97966Y-20300D01*
X97915Y-20550D01*
X97771Y-21049D01*
X97570Y-21547D01*
X97312Y-22044D01*
X96998Y-22541D01*
X96628Y-23037D01*
X96202Y-23534D01*
X95645Y-24099D01*
X94880Y-24801D01*
X93909Y-25639D01*
X92730Y-26614D01*
X92061Y-27176D01*
X91464Y-27710D01*
X90939Y-28216D01*
X90485Y-28693D01*
X90097Y-29152D01*
X89768Y-29602D01*
X89496Y-30044D01*
X89283Y-30478D01*
X98300Y-30478D01*
X98300Y-32355D01*
G37*
G36*
X118214Y-32355D02*
X115822Y-32355D01*
X115822Y-29668D01*
X118214Y-29668D01*
X118214Y-32355D01*
G37*
G36*
X64005Y145200D02*
X63639Y145209D01*
X63283Y145235D01*
X62940Y145279D01*
X62608Y145342D01*
X62287Y145421D01*
X61978Y145519D01*
X61681Y145634D01*
X61395Y145767D01*
X61121Y145918D01*
X60859Y146086D01*
X60608Y146272D01*
X60369Y146476D01*
X60141Y146698D01*
X59925Y146937D01*
X59721Y147194D01*
X59528Y147469D01*
X59346Y147761D01*
X59177Y148069D01*
X59019Y148394D01*
X58873Y148734D01*
X58738Y149091D01*
X58616Y149465D01*
X58504Y149854D01*
X58405Y150260D01*
X58317Y150682D01*
X58241Y151121D01*
X58177Y151576D01*
X58124Y152047D01*
X58084Y152534D01*
X58054Y153038D01*
X58037Y153558D01*
X58031Y154094D01*
X58054Y155172D01*
X58082Y155685D01*
X58122Y156181D01*
X58173Y156659D01*
X58235Y157120D01*
X58309Y157563D01*
X58394Y157989D01*
X58491Y158397D01*
X58599Y158788D01*
X58718Y159162D01*
X58849Y159518D01*
X58991Y159857D01*
X59144Y160178D01*
X59309Y160482D01*
X59485Y160768D01*
X59673Y161037D01*
X59874Y161288D01*
X60089Y161522D01*
X60317Y161739D01*
X60558Y161939D01*
X60812Y162121D01*
X61080Y162286D01*
X61360Y162433D01*
X61654Y162563D01*
X61961Y162676D01*
X62281Y162771D01*
X62614Y162850D01*
X62961Y162910D01*
X63320Y162954D01*
X63693Y162980D01*
X64079Y162988D01*
X64455Y162980D01*
X64818Y162953D01*
X65168Y162909D01*
X65506Y162848D01*
X65832Y162769D01*
X66145Y162673D01*
X66446Y162559D01*
X66734Y162427D01*
X67009Y162278D01*
X67272Y162111D01*
X67523Y161927D01*
X67761Y161725D01*
X67986Y161506D01*
X68199Y161269D01*
X68400Y161015D01*
X68588Y160743D01*
X68764Y160454D01*
X68928Y160148D01*
X69082Y159825D01*
X69224Y159486D01*
X69354Y159129D01*
X69473Y158756D01*
X69581Y158366D01*
X69678Y157958D01*
X69763Y157534D01*
X69837Y157094D01*
X69899Y156636D01*
X69950Y156161D01*
X70019Y155161D01*
X70041Y154094D01*
X70035Y153561D01*
X70017Y153043D01*
X69988Y152542D01*
X69946Y152057D01*
X69892Y151587D01*
X69827Y151134D01*
X69749Y150697D01*
X69660Y150276D01*
X69558Y149870D01*
X69445Y149481D01*
X69319Y149108D01*
X69182Y148750D01*
X69033Y148409D01*
X68872Y148084D01*
X68699Y147775D01*
X68514Y147481D01*
X68317Y147205D01*
X68109Y146947D01*
X67890Y146706D01*
X67659Y146483D01*
X67417Y146278D01*
X67164Y146091D01*
X66899Y145922D01*
X66623Y145770D01*
X66336Y145636D01*
X66037Y145521D01*
X65727Y145423D01*
X65405Y145342D01*
X65072Y145280D01*
X64728Y145235D01*
X64372Y145209D01*
X64005Y145200D01*
G37*
%LPC*%
G36*
X64030Y147003D02*
X64270Y147010D01*
X64501Y147030D01*
X64725Y147064D01*
X64940Y147112D01*
X65147Y147173D01*
X65346Y147248D01*
X65537Y147336D01*
X65720Y147439D01*
X66061Y147684D01*
X66369Y147983D01*
X66645Y148337D01*
X66888Y148745D01*
X67101Y149210D01*
X67286Y149733D01*
X67442Y150314D01*
X67569Y150953D01*
X67669Y151651D01*
X67740Y152407D01*
X67782Y153221D01*
X67796Y154094D01*
X67783Y154997D01*
X67742Y155836D01*
X67675Y156610D01*
X67580Y157320D01*
X67458Y157966D01*
X67310Y158547D01*
X67134Y159064D01*
X66931Y159516D01*
X66698Y159910D01*
X66429Y160252D01*
X66125Y160541D01*
X65786Y160777D01*
X65412Y160961D01*
X65212Y161033D01*
X65003Y161092D01*
X64785Y161138D01*
X64558Y161171D01*
X64323Y161191D01*
X64079Y161197D01*
X63829Y161191D01*
X63588Y161171D01*
X63356Y161139D01*
X63133Y161094D01*
X62918Y161035D01*
X62713Y160964D01*
X62329Y160783D01*
X61982Y160550D01*
X61670Y160266D01*
X61393Y159929D01*
X61153Y159541D01*
X60945Y159094D01*
X60764Y158579D01*
X60611Y157999D01*
X60486Y157351D01*
X60389Y156637D01*
X60319Y155856D01*
X60278Y155008D01*
X60264Y154094D01*
X60278Y153205D01*
X60320Y152377D01*
X60391Y151611D01*
X60489Y150907D01*
X60616Y150265D01*
X60771Y149684D01*
X60954Y149165D01*
X61165Y148708D01*
X61407Y148309D01*
X61683Y147962D01*
X61991Y147669D01*
X62332Y147429D01*
X62707Y147243D01*
X62907Y147170D01*
X63115Y147110D01*
X63331Y147063D01*
X63556Y147030D01*
X63789Y147010D01*
X64030Y147003D01*
G37*
%LPD*%
G36*
X77974Y145200D02*
X77607Y145209D01*
X77252Y145235D01*
X76908Y145279D01*
X76576Y145342D01*
X76256Y145421D01*
X75947Y145519D01*
X75650Y145634D01*
X75364Y145767D01*
X75090Y145918D01*
X74828Y146086D01*
X74577Y146272D01*
X74337Y146476D01*
X74110Y146698D01*
X73894Y146937D01*
X73689Y147194D01*
X73496Y147469D01*
X73315Y147761D01*
X73146Y148069D01*
X72988Y148394D01*
X72842Y148734D01*
X72707Y149091D01*
X72584Y149465D01*
X72473Y149854D01*
X72374Y150260D01*
X72286Y150682D01*
X72210Y151121D01*
X72146Y151576D01*
X72093Y152047D01*
X72052Y152534D01*
X72023Y153038D01*
X72006Y153558D01*
X72000Y154094D01*
X72022Y155172D01*
X72051Y155685D01*
X72091Y156181D01*
X72142Y156659D01*
X72204Y157120D01*
X72278Y157563D01*
X72363Y157989D01*
X72460Y158397D01*
X72568Y158788D01*
X72687Y159162D01*
X72817Y159518D01*
X72959Y159857D01*
X73113Y160178D01*
X73277Y160482D01*
X73453Y160768D01*
X73642Y161037D01*
X73843Y161288D01*
X74058Y161522D01*
X74286Y161739D01*
X74527Y161939D01*
X74781Y162121D01*
X75048Y162286D01*
X75329Y162433D01*
X75623Y162563D01*
X75930Y162676D01*
X76250Y162771D01*
X76583Y162850D01*
X76929Y162910D01*
X77289Y162954D01*
X77662Y162980D01*
X78048Y162988D01*
X78423Y162980D01*
X78786Y162953D01*
X79137Y162909D01*
X79475Y162848D01*
X79801Y162769D01*
X80114Y162673D01*
X80414Y162559D01*
X80702Y162427D01*
X80978Y162278D01*
X81241Y162111D01*
X81491Y161927D01*
X81729Y161725D01*
X81955Y161506D01*
X82168Y161269D01*
X82368Y161015D01*
X82556Y160743D01*
X82732Y160454D01*
X82897Y160148D01*
X83050Y159825D01*
X83192Y159486D01*
X83323Y159129D01*
X83442Y158756D01*
X83550Y158366D01*
X83647Y157958D01*
X83732Y157534D01*
X83806Y157094D01*
X83868Y156636D01*
X83919Y156161D01*
X83987Y155161D01*
X84010Y154094D01*
X84004Y153561D01*
X83986Y153043D01*
X83956Y152542D01*
X83915Y152057D01*
X83861Y151587D01*
X83795Y151134D01*
X83718Y150697D01*
X83628Y150276D01*
X83527Y149870D01*
X83413Y149481D01*
X83288Y149108D01*
X83151Y148750D01*
X83002Y148409D01*
X82841Y148084D01*
X82668Y147775D01*
X82483Y147481D01*
X82286Y147205D01*
X82078Y146947D01*
X81859Y146706D01*
X81628Y146483D01*
X81386Y146278D01*
X81133Y146091D01*
X80868Y145922D01*
X80592Y145770D01*
X80304Y145636D01*
X80006Y145521D01*
X79695Y145423D01*
X79374Y145342D01*
X79041Y145280D01*
X78697Y145235D01*
X78341Y145209D01*
X77974Y145200D01*
G37*
%LPC*%
G36*
X77999Y147003D02*
X78239Y147010D01*
X78470Y147030D01*
X78694Y147064D01*
X78909Y147112D01*
X79116Y147173D01*
X79315Y147248D01*
X79506Y147336D01*
X79689Y147439D01*
X80030Y147684D01*
X80338Y147983D01*
X80614Y148337D01*
X80857Y148745D01*
X81070Y149210D01*
X81254Y149733D01*
X81410Y150314D01*
X81538Y150953D01*
X81637Y151651D01*
X81708Y152407D01*
X81751Y153221D01*
X81765Y154094D01*
X81752Y154997D01*
X81711Y155836D01*
X81643Y156610D01*
X81549Y157320D01*
X81427Y157966D01*
X81279Y158547D01*
X81103Y159064D01*
X80900Y159516D01*
X80666Y159910D01*
X80398Y160252D01*
X80094Y160541D01*
X79755Y160777D01*
X79381Y160961D01*
X79180Y161033D01*
X78971Y161092D01*
X78754Y161138D01*
X78527Y161171D01*
X78292Y161191D01*
X78048Y161197D01*
X77798Y161191D01*
X77557Y161171D01*
X77324Y161139D01*
X77101Y161094D01*
X76887Y161035D01*
X76682Y160964D01*
X76298Y160783D01*
X75950Y160550D01*
X75638Y160266D01*
X75362Y159929D01*
X75122Y159541D01*
X74913Y159094D01*
X74733Y158579D01*
X74580Y157999D01*
X74455Y157351D01*
X74358Y156637D01*
X74288Y155856D01*
X74246Y155008D01*
X74232Y154094D01*
X74247Y153205D01*
X74289Y152377D01*
X74359Y151611D01*
X74458Y150907D01*
X74585Y150265D01*
X74740Y149684D01*
X74923Y149165D01*
X75134Y148708D01*
X75376Y148309D01*
X75651Y147962D01*
X75960Y147669D01*
X76301Y147429D01*
X76676Y147243D01*
X76876Y147170D01*
X77084Y147110D01*
X77300Y147063D01*
X77525Y147030D01*
X77758Y147010D01*
X77999Y147003D01*
G37*
%LPD*%
G36*
X36765Y145445D02*
X25932Y145445D01*
X25932Y147322D01*
X30336Y147322D01*
X30336Y160621D01*
X26435Y157836D01*
X26435Y159921D01*
X30520Y162731D01*
X32557Y162731D01*
X32557Y147322D01*
X36765Y147322D01*
X36765Y145445D01*
G37*
G36*
X48858Y145445D02*
X38026Y145445D01*
X38026Y147322D01*
X42430Y147322D01*
X42430Y160621D01*
X38529Y157836D01*
X38529Y159921D01*
X42614Y162731D01*
X44651Y162731D01*
X44651Y147322D01*
X48858Y147322D01*
X48858Y145445D01*
G37*
G36*
X54767Y145445D02*
X52375Y145445D01*
X52375Y148132D01*
X54767Y148132D01*
X54767Y145445D01*
G37*
D10*
X0Y0D02*
X-44900Y0D01*
X-44900Y63500D02*
X0Y63500D01*
X-25400Y-650D02*
X-25400Y-52000D01*
X-25400Y64150D02*
X-25400Y139128D01*
X-25400Y-650D02*
X-28592Y-26000D01*
X-22208Y-26000D01*
X-25400Y-650D01*
X-26700Y-26000D01*
X-24100Y-26000D02*
X-25400Y-650D01*
X-28000Y-26000D01*
X-22800Y-26000D02*
X-25400Y-650D01*
X-25400Y64150D02*
X-28592Y89500D01*
X-22208Y89500D01*
X-25400Y64150D01*
X-26700Y89500D01*
X-24100Y89500D02*
X-25400Y64150D01*
X-28000Y89500D01*
X-22800Y89500D02*
X-25400Y64150D01*
X0Y0D02*
X0Y-57600D01*
X235001Y-57600D02*
X235001Y0D01*
X234351Y-38100D02*
X650Y-38100D01*
X26000Y-34908D01*
X26000Y-41292D01*
X650Y-38100D01*
X26000Y-36800D01*
X26000Y-39400D02*
X650Y-38100D01*
X26000Y-35500D01*
X26000Y-40700D02*
X650Y-38100D01*
X209001Y-34908D02*
X234351Y-38100D01*
X209001Y-34908D02*
X209001Y-41292D01*
X234351Y-38100D01*
X209001Y-36800D01*
X209001Y-39400D02*
X234351Y-38100D01*
X209001Y-35500D01*
X209001Y-40700D02*
X234351Y-38100D01*
X0Y120200D02*
X0Y152400D01*
X109982Y152400D02*
X109982Y120200D01*
X109332Y139700D02*
X650Y139700D01*
X26000Y142892D01*
X26000Y136508D01*
X650Y139700D01*
X26000Y141000D01*
X26000Y138400D02*
X650Y139700D01*
X26000Y142300D01*
X26000Y137100D02*
X650Y139700D01*
X83982Y142892D02*
X109332Y139700D01*
X83982Y142892D02*
X83982Y136508D01*
X109332Y139700D01*
X83982Y141000D01*
X83982Y138400D02*
X109332Y139700D01*
X83982Y142300D01*
X83982Y137100D02*
X109332Y139700D01*
D11*
X41910Y33020D02*
X41910Y17780D01*
X67310Y17780D02*
X67310Y33020D01*
X92710Y33020D02*
X92710Y17780D01*
X118110Y17780D02*
X118110Y33020D01*
X192940Y23876D02*
X208180Y23876D01*
X208180Y49276D02*
X192940Y49276D01*
D12*
X45491Y51630D03*
X15983Y51630D03*
X74106Y51630D03*
X103614Y51630D03*
D13*
X150805Y37566D03*
X150805Y56566D03*
X129525Y47066D03*
D14*
X173001Y49657D03*
X228001Y49657D03*
X173001Y24257D03*
X228001Y24257D03*
D15*
X141224Y18542D03*
D16*
X18542Y18542D03*
D17*
X17463Y50800D02*
X33338Y50800D01*
X66675Y50800D02*
X73025Y50800D01*
X66675Y50800D02*
X58738Y50800D01*
X17463Y50800D02*
X15983Y51630D01*
X73025Y50800D02*
X74106Y51630D01*
X130175Y47625D02*
X141288Y47625D01*
X130175Y47625D02*
X129525Y47066D01*
X66675Y50800D02*
X66675Y25400D01*
X67310Y25400D01*
D18*
X33338Y50800D03*
X58738Y50800D03*
X141288Y47625D03*
D17*
X41910Y25400D02*
X41275Y25400D01*
X173038Y25400D02*
X196850Y49213D01*
X200025Y49213D01*
X173038Y25400D02*
X173001Y24257D01*
X200025Y49213D02*
X200560Y49276D01*
X203200Y49213D02*
X227013Y25400D01*
X203200Y49213D02*
X201613Y49213D01*
X227013Y25400D02*
X228001Y24257D01*
X201613Y49213D02*
X200560Y49276D01*
X34417Y18542D02*
X18542Y18542D01*
X34417Y18542D02*
X41275Y25400D01*
X131763Y38100D02*
X149225Y38100D01*
X150805Y37566D01*
D18*
X131763Y38100D03*
D17*
X172974Y45974D02*
X172974Y49649D01*
X172974Y45974D02*
X158750Y31750D01*
X172974Y49649D02*
X173001Y49657D01*
X124460Y31750D02*
X118110Y25400D01*
X124460Y31750D02*
X158750Y31750D01*
X118110Y25400D02*
X103614Y39896D01*
X103614Y51630D01*
X150813Y55563D02*
X150813Y46038D01*
X150813Y55563D02*
X150805Y56566D01*
X200025Y23813D02*
X200560Y23876D01*
D18*
X150813Y46038D03*
D17*
X189421Y13208D02*
X200025Y23813D01*
X161952Y13208D02*
X156618Y18542D01*
X161952Y13208D02*
X189421Y13208D01*
X156618Y18542D02*
X141224Y18542D01*
X44450Y50800D02*
X34925Y41275D01*
X31750Y41275D01*
X44450Y50800D02*
X45491Y51630D01*
D18*
X31750Y41275D03*
M02*
